<svg width="716" height="603" viewBox="0 0 716 603" fill="none" xmlns="http://www.w3.org/2000/svg">
<path fill-rule="evenodd" clip-rule="evenodd" d="M399.439 451.837C331.834 501.678 219.6 476.441 150.031 382.079C80.4624 287.718 89.5431 173.04 157.147 123.198C188.384 100.168 229.149 93.1678 270.831 101.609L453.681 349.622C449.418 391.936 430.675 428.807 399.439 451.837ZM262.633 79.371C263.191 78.6032 263.874 77.907 264.678 77.3139L310.225 43.7345C314.432 40.6326 320.357 41.5287 323.459 45.7361L423.038 180.803L521.858 314.839C524.96 319.047 524.063 324.972 519.856 328.074L474.31 361.653C473.804 362.026 473.273 362.342 472.725 362.6C466.133 405.423 445.654 443.207 411.591 468.32C336.035 524.024 220.688 497.448 146.105 410.056L146.07 410.082L145.62 409.487C141.464 404.591 137.435 399.504 133.548 394.232C131.085 390.891 128.711 387.519 126.424 384.118L98.4247 347.114L103.644 343.165C63.6273 254 78.1755 155.978 144.995 106.715C178.678 81.8811 220.27 73.4005 262.633 79.371Z" fill="black"/>
<g filter="url(#filter0_i)">
<rect x="458.867" y="146.549" width="159.051" height="455.947" rx="10.6034" fill="black"/>
</g>
<g filter="url(#filter1_i)">
<rect x="363.437" y="188.963" width="352.563" height="352.563" rx="18.556" fill="#000B14"/>
</g>
<path d="M659.478 491.345L659.845 487.669H663.614V488.244H660.379L660.115 490.791C660.518 490.515 660.991 490.377 661.533 490.377C662.213 490.377 662.755 490.598 663.159 491.04C663.563 491.481 663.765 492.07 663.765 492.805C663.765 493.599 663.568 494.215 663.174 494.654C662.781 495.092 662.227 495.311 661.512 495.311C660.857 495.311 660.325 495.128 659.918 494.762C659.51 494.396 659.278 493.884 659.219 493.225H659.814C659.873 493.739 660.047 494.129 660.337 494.395C660.627 494.657 661.019 494.788 661.512 494.788C662.051 494.788 662.456 494.617 662.729 494.276C663.005 493.934 663.143 493.447 663.143 492.816C663.143 492.263 662.99 491.813 662.683 491.464C662.375 491.116 661.956 490.941 661.424 490.941C661.131 490.941 660.876 490.979 660.658 491.055C660.441 491.128 660.211 491.271 659.97 491.485L659.478 491.345ZM664.888 494.835C664.888 494.714 664.926 494.612 665.002 494.529C665.081 494.443 665.19 494.4 665.328 494.4C665.466 494.4 665.575 494.443 665.654 494.529C665.734 494.612 665.773 494.714 665.773 494.835C665.773 494.956 665.734 495.056 665.654 495.135C665.575 495.211 665.466 495.249 665.328 495.249C665.19 495.249 665.081 495.211 665.002 495.135C664.926 495.056 664.888 494.956 664.888 494.835ZM664.898 490.056C664.898 489.935 664.936 489.833 665.012 489.75C665.092 489.664 665.201 489.621 665.339 489.621C665.477 489.621 665.585 489.664 665.665 489.75C665.744 489.833 665.784 489.935 665.784 490.056C665.784 490.177 665.744 490.277 665.665 490.356C665.585 490.432 665.477 490.47 665.339 490.47C665.201 490.47 665.092 490.432 665.012 490.356C664.936 490.277 664.898 490.177 664.898 490.056ZM670.972 492.779H672.147V493.302H670.972V495.208H670.35V493.302H666.804V492.95L670.293 487.669H670.972V492.779ZM667.565 492.779H670.35V488.472L670.076 488.948L667.565 492.779ZM673.467 491.345L673.835 487.669H677.604V488.244H674.368L674.104 490.791C674.508 490.515 674.981 490.377 675.523 490.377C676.203 490.377 676.744 490.598 677.148 491.04C677.552 491.481 677.754 492.07 677.754 492.805C677.754 493.599 677.557 494.215 677.164 494.654C676.77 495.092 676.216 495.311 675.502 495.311C674.846 495.311 674.315 495.128 673.907 494.762C673.5 494.396 673.267 493.884 673.208 493.225H673.804C673.862 493.739 674.037 494.129 674.327 494.395C674.617 494.657 675.008 494.788 675.502 494.788C676.04 494.788 676.446 494.617 676.719 494.276C676.995 493.934 677.133 493.447 677.133 492.816C677.133 492.263 676.979 491.813 676.672 491.464C676.365 491.116 675.945 490.941 675.414 490.941C675.12 490.941 674.865 490.979 674.648 491.055C674.43 491.128 674.201 491.271 673.959 491.485L673.467 491.345Z" fill="black"/>
<path d="M402.159 495.208H401.537V488.415L399.487 489.176V488.596L402.055 487.643H402.159V495.208ZM405.105 494.835C405.105 494.714 405.143 494.612 405.219 494.529C405.298 494.443 405.407 494.4 405.545 494.4C405.683 494.4 405.792 494.443 405.871 494.529C405.95 494.612 405.99 494.714 405.99 494.835C405.99 494.956 405.95 495.056 405.871 495.135C405.792 495.211 405.683 495.249 405.545 495.249C405.407 495.249 405.298 495.211 405.219 495.135C405.143 495.056 405.105 494.956 405.105 494.835ZM405.115 490.056C405.115 489.935 405.153 489.833 405.229 489.75C405.308 489.664 405.417 489.621 405.555 489.621C405.693 489.621 405.802 489.664 405.881 489.75C405.961 489.833 406 489.935 406 490.056C406 490.177 405.961 490.277 405.881 490.356C405.802 490.432 405.693 490.47 405.555 490.47C405.417 490.47 405.308 490.432 405.229 490.356C405.153 490.277 405.115 490.177 405.115 490.056ZM408.76 491.102H409.402C409.757 491.102 410.068 491.04 410.334 490.915C410.6 490.788 410.802 490.615 410.94 490.398C411.081 490.177 411.152 489.923 411.152 489.637C411.152 489.153 411.016 488.775 410.743 488.503C410.47 488.23 410.078 488.094 409.568 488.094C409.084 488.094 408.687 488.237 408.377 488.523C408.07 488.806 407.916 489.181 407.916 489.647H407.295C407.295 489.257 407.393 488.901 407.59 488.58C407.787 488.256 408.059 488.006 408.408 487.83C408.757 487.654 409.143 487.566 409.568 487.566C410.251 487.566 410.79 487.752 411.183 488.125C411.576 488.498 411.773 489.008 411.773 489.657C411.773 490.02 411.658 490.355 411.426 490.662C411.199 490.965 410.884 491.193 410.484 491.345C410.953 491.476 411.309 491.702 411.551 492.023C411.792 492.341 411.913 492.721 411.913 493.162C411.913 493.808 411.702 494.327 411.281 494.721C410.86 495.114 410.298 495.311 409.594 495.311C409.145 495.311 408.732 495.221 408.356 495.042C407.983 494.862 407.693 494.612 407.486 494.291C407.283 493.967 407.181 493.59 407.181 493.162H407.802C407.802 493.642 407.97 494.034 408.304 494.338C408.639 494.638 409.069 494.788 409.594 494.788C410.129 494.788 410.544 494.652 410.841 494.379C411.142 494.103 411.292 493.704 411.292 493.183C411.292 492.679 411.13 492.294 410.805 492.029C410.484 491.763 410.009 491.63 409.381 491.63H408.76V491.102ZM417.81 492.065C417.81 493.128 417.615 493.936 417.225 494.488C416.835 495.037 416.26 495.311 415.501 495.311C414.755 495.311 414.184 495.042 413.787 494.503C413.39 493.961 413.187 493.175 413.176 492.142V490.791C413.176 489.732 413.373 488.929 413.767 488.384C414.16 487.838 414.735 487.566 415.491 487.566C416.236 487.566 416.806 487.83 417.199 488.358C417.593 488.882 417.796 489.657 417.81 490.682V492.065ZM417.189 490.713C417.189 489.851 417.047 489.198 416.764 488.756C416.485 488.315 416.06 488.094 415.491 488.094C414.931 488.094 414.51 488.309 414.227 488.741C413.944 489.172 413.799 489.809 413.792 490.651V492.132C413.792 492.992 413.937 493.649 414.227 494.105C414.521 494.56 414.945 494.788 415.501 494.788C416.053 494.788 416.471 494.566 416.754 494.12C417.04 493.675 417.185 493.023 417.189 492.163V490.713Z" fill="black"/>
<mask id="mask0" mask-type="alpha" maskUnits="userSpaceOnUse" x="387" y="212" width="306" height="306">
<rect x="387.213" y="212.284" width="304.897" height="304.897" rx="7.95383" fill="#393939"/>
</mask>
<g mask="url(#mask0)">
<rect x="387.213" y="212.284" width="304.897" height="22.3777" fill="#252525"/>
<rect x="388.612" y="236.06" width="149.651" height="149.651" fill="#08D24D"/>
<path d="M400.097 373.256C398.86 372.9 397.958 372.464 397.392 371.948C396.832 371.428 396.551 370.787 396.551 370.025C396.551 369.164 396.894 368.453 397.58 367.892C398.271 367.326 399.168 367.043 400.27 367.043C401.021 367.043 401.689 367.188 402.275 367.479C402.866 367.769 403.322 368.17 403.643 368.681C403.968 369.192 404.131 369.75 404.131 370.356H402.681C402.681 369.695 402.471 369.177 402.05 368.801C401.629 368.42 401.036 368.23 400.27 368.23C399.558 368.23 399.003 368.388 398.602 368.703C398.206 369.014 398.008 369.447 398.008 370.003C398.008 370.449 398.196 370.827 398.572 371.137C398.952 371.443 399.596 371.723 400.502 371.979C401.414 372.234 402.125 372.517 402.636 372.827C403.152 373.133 403.532 373.491 403.778 373.902C404.028 374.312 404.153 374.796 404.153 375.351C404.153 376.238 403.808 376.949 403.117 377.485C402.426 378.016 401.502 378.281 400.345 378.281C399.594 378.281 398.892 378.138 398.241 377.853C397.59 377.563 397.087 377.167 396.731 376.666C396.381 376.165 396.206 375.597 396.206 374.961H397.655C397.655 375.622 397.898 376.145 398.384 376.531C398.875 376.911 399.528 377.102 400.345 377.102C401.106 377.102 401.689 376.947 402.095 376.636C402.501 376.326 402.704 375.902 402.704 375.366C402.704 374.831 402.516 374.417 402.14 374.127C401.765 373.832 401.083 373.541 400.097 373.256ZM412.657 374.157C412.657 375.394 412.374 376.391 411.808 377.147C411.242 377.903 410.476 378.281 409.509 378.281C408.523 378.281 407.747 377.968 407.181 377.342V381.256H405.791V370.003H407.061L407.128 370.904C407.694 370.203 408.48 369.853 409.487 369.853C410.463 369.853 411.235 370.221 411.801 370.957C412.372 371.693 412.657 372.717 412.657 374.029V374.157ZM411.267 373.999C411.267 373.083 411.072 372.359 410.681 371.828C410.291 371.297 409.755 371.032 409.074 371.032C408.232 371.032 407.601 371.405 407.181 372.151V376.035C407.596 376.776 408.232 377.147 409.089 377.147C409.755 377.147 410.283 376.884 410.674 376.358C411.069 375.827 411.267 375.041 411.267 373.999ZM414.062 373.992C414.062 373.195 414.217 372.479 414.527 371.843C414.843 371.207 415.279 370.717 415.835 370.371C416.395 370.025 417.034 369.853 417.75 369.853C418.857 369.853 419.751 370.236 420.432 371.002C421.118 371.768 421.461 372.787 421.461 374.059V374.157C421.461 374.948 421.308 375.659 421.003 376.29C420.702 376.916 420.269 377.405 419.703 377.755C419.142 378.106 418.496 378.281 417.765 378.281C416.663 378.281 415.769 377.898 415.083 377.132C414.402 376.366 414.062 375.351 414.062 374.089V373.992ZM415.459 374.157C415.459 375.058 415.667 375.782 416.082 376.328C416.503 376.874 417.064 377.147 417.765 377.147C418.471 377.147 419.032 376.871 419.448 376.321C419.864 375.765 420.071 374.988 420.071 373.992C420.071 373.1 419.859 372.379 419.433 371.828C419.012 371.272 418.451 370.994 417.75 370.994C417.064 370.994 416.511 371.267 416.09 371.813C415.669 372.359 415.459 373.14 415.459 374.157ZM425.089 368.035V370.003H426.607V371.077H425.089V376.118C425.089 376.443 425.157 376.689 425.292 376.854C425.427 377.014 425.658 377.094 425.983 377.094C426.144 377.094 426.364 377.064 426.644 377.004V378.131C426.279 378.231 425.923 378.281 425.578 378.281C424.957 378.281 424.488 378.093 424.173 377.718C423.857 377.342 423.7 376.809 423.7 376.118V371.077H422.22V370.003H423.7V368.035H425.089ZM429.747 378.131H428.357V370.003H429.747V378.131ZM428.245 367.847C428.245 367.622 428.312 367.431 428.447 367.276C428.588 367.121 428.793 367.043 429.063 367.043C429.334 367.043 429.539 367.121 429.679 367.276C429.82 367.431 429.89 367.622 429.89 367.847C429.89 368.072 429.82 368.26 429.679 368.41C429.539 368.561 429.334 368.636 429.063 368.636C428.793 368.636 428.588 368.561 428.447 368.41C428.312 368.26 428.245 368.072 428.245 367.847ZM432.662 378.131V371.077H431.377V370.003H432.662V369.169C432.662 368.298 432.894 367.624 433.36 367.148C433.826 366.673 434.485 366.435 435.336 366.435C435.656 366.435 435.974 366.477 436.29 366.562L436.215 367.689C435.979 367.644 435.729 367.622 435.464 367.622C435.013 367.622 434.665 367.754 434.419 368.02C434.174 368.28 434.051 368.656 434.051 369.146V370.003H435.787V371.077H434.051V378.131H432.662ZM439.986 376.095L441.879 370.003H443.366L440.099 379.385C439.593 380.738 438.789 381.414 437.687 381.414L437.424 381.391L436.906 381.293V380.167L437.282 380.197C437.752 380.197 438.118 380.102 438.378 379.911C438.644 379.721 438.862 379.373 439.032 378.867L439.34 378.041L436.44 370.003H437.958L439.986 376.095Z" fill="white"/>
<path d="M459.241 286.41C445.724 286.41 434.766 297.368 434.766 310.886C434.766 324.403 445.724 335.362 459.241 335.362C472.759 335.362 483.717 324.403 483.717 310.886C483.717 297.368 472.759 286.41 459.241 286.41ZM469.893 321.931C469.582 322.464 469.022 322.761 468.447 322.761C468.16 322.761 467.869 322.687 467.604 322.532C463.206 319.961 458.124 319.548 454.636 319.654C450.771 319.772 447.937 320.535 447.909 320.543C447.018 320.786 446.097 320.262 445.853 319.371C445.608 318.48 446.131 317.56 447.021 317.315C447.149 317.28 450.199 316.451 454.44 316.311C456.938 316.229 459.343 316.403 461.587 316.829C464.429 317.368 467.022 318.314 469.293 319.642C470.091 320.108 470.36 321.133 469.893 321.931ZM473.005 315.469C472.636 316.099 471.973 316.451 471.292 316.451C470.952 316.451 470.608 316.364 470.293 316.18C465.083 313.135 459.064 312.646 454.932 312.772C450.354 312.911 446.997 313.815 446.963 313.824C445.908 314.112 444.818 313.491 444.528 312.436C444.239 311.381 444.858 310.291 445.912 310.001C446.064 309.959 449.676 308.978 454.7 308.812C457.659 308.714 460.508 308.921 463.166 309.425C466.532 310.064 469.603 311.184 472.294 312.757C473.239 313.309 473.558 314.523 473.005 315.469ZM474.918 309.592C474.501 309.592 474.079 309.485 473.693 309.26C461.307 302.021 445.24 306.325 445.079 306.369C443.784 306.726 442.446 305.965 442.089 304.67C441.732 303.376 442.493 302.037 443.788 301.68C443.973 301.629 448.404 300.425 454.566 300.222C458.196 300.103 461.69 300.355 464.951 300.974C469.08 301.757 472.847 303.132 476.147 305.061C477.307 305.738 477.697 307.228 477.02 308.387C476.568 309.161 475.754 309.592 474.918 309.592Z" fill="white"/>
<rect x="541.06" y="236.06" width="149.651" height="149.651" fill="#0178D7"/>
<path d="M636.947 305.835H633.283C632.694 305.835 632.209 305.511 631.983 304.967C631.758 304.423 631.872 303.85 632.288 303.434L634.878 300.845C635.259 300.464 635.469 299.957 635.469 299.419C635.469 298.88 635.259 298.374 634.878 297.992L631.576 294.69C630.815 293.929 629.487 293.928 628.724 294.69L626.134 297.28C625.79 297.625 625.411 297.696 625.154 297.696C624.791 297.696 624.431 297.554 624.165 297.306C623.968 297.121 623.733 296.795 623.733 296.286V292.622C623.733 291.51 622.829 290.606 621.717 290.606H617.047C615.935 290.606 615.031 291.51 615.031 292.622V296.286C615.031 297.169 614.308 297.696 613.609 297.696C613.352 297.696 612.973 297.624 612.629 297.28L610.039 294.69C609.276 293.928 607.948 293.929 607.187 294.69L603.885 297.992C603.504 298.373 603.295 298.88 603.295 299.419C603.295 299.957 603.504 300.463 603.885 300.845L606.476 303.434C606.891 303.85 607.005 304.423 606.78 304.967C606.555 305.511 606.07 305.835 605.481 305.835H601.818C600.706 305.835 599.802 306.74 599.802 307.851V312.52C599.802 313.633 600.706 314.538 601.818 314.538H605.481C606.07 314.538 606.555 314.862 606.781 315.406C607.006 315.95 606.892 316.523 606.476 316.939L603.886 319.529C603.505 319.909 603.296 320.416 603.296 320.954C603.296 321.493 603.505 321.999 603.886 322.381L607.188 325.683C607.95 326.445 609.277 326.446 610.04 325.683L612.63 323.093C612.974 322.749 613.353 322.677 613.61 322.677C614.309 322.677 615.032 323.205 615.032 324.087V327.75C615.031 328.862 615.935 329.767 617.047 329.767H621.716C622.828 329.767 623.733 328.862 623.733 327.75V324.087C623.733 323.204 624.456 322.677 625.154 322.677C625.411 322.677 625.79 322.749 626.134 323.093L628.724 325.683C629.487 326.446 630.815 326.444 631.576 325.683L634.878 322.381C635.259 322 635.469 321.493 635.469 320.954C635.469 320.416 635.259 319.91 634.878 319.529L632.288 316.939C631.872 316.523 631.758 315.95 631.983 315.406C632.208 314.862 632.694 314.538 633.283 314.538H636.947C638.058 314.538 638.963 313.633 638.963 312.521V307.851C638.963 306.74 638.058 305.835 636.947 305.835ZM624.458 310.187C624.458 312.985 622.181 315.263 619.382 315.263C616.583 315.263 614.306 312.985 614.306 310.187C614.306 307.388 616.583 305.11 619.382 305.11C622.181 305.11 624.458 307.388 624.458 310.187Z" fill="white"/>
<rect x="541.06" y="388.509" width="149.651" height="149.651" fill="#0178D7"/>
<path d="M638.963 466.481C638.963 467.401 638.704 468.254 638.289 469.004L625.042 454.181L638.146 442.716C638.656 443.525 638.963 444.475 638.963 445.502V466.481ZM617.984 456.873L636.218 440.918C635.47 440.509 634.627 440.257 633.718 440.257H602.249C601.339 440.257 600.496 440.509 599.751 440.918L617.984 456.873ZM623.067 455.907L618.846 459.603C618.6 459.818 618.292 459.925 617.984 459.925C617.675 459.925 617.367 459.818 617.121 459.603L612.899 455.907L599.483 470.919C600.287 471.424 601.23 471.726 602.249 471.726H633.718C634.737 471.726 635.68 471.424 636.484 470.919L623.067 455.907ZM597.821 442.716C597.312 443.525 597.004 444.475 597.004 445.502V466.481C597.004 467.401 597.262 468.254 597.678 469.004L610.924 454.179L597.821 442.716Z" fill="white"/>
<rect x="388.612" y="464.034" width="149.651" height="149.651" fill="#0CC68E"/>
<path d="M482.87 547.049L477.039 541.203C475.877 540.044 473.953 540.079 472.751 541.284L469.813 544.228C469.628 544.126 469.436 544.019 469.234 543.905C467.378 542.875 464.839 541.462 462.167 538.782C459.486 536.096 458.076 533.547 457.045 531.687C456.936 531.489 456.832 531.299 456.729 531.119L458.701 529.145L459.67 528.173C460.874 526.966 460.907 525.038 459.748 523.875L453.917 518.029C452.758 516.868 450.833 516.903 449.629 518.11L447.986 519.767L448.031 519.811C447.48 520.516 447.019 521.329 446.676 522.206C446.36 523.04 446.164 523.836 446.074 524.634C445.304 531.033 448.221 536.88 456.138 544.815C467.082 555.783 475.901 554.955 476.282 554.914C477.11 554.815 477.904 554.617 478.711 554.302C479.578 553.963 480.389 553.502 481.092 552.951L481.128 552.983L482.793 551.349C483.994 550.142 484.029 548.214 482.87 547.049Z" fill="white"/>
<path d="M555.343 373.857C554.106 373.501 553.204 373.066 552.638 372.55C552.077 372.029 551.797 371.388 551.797 370.627C551.797 369.765 552.14 369.054 552.826 368.493C553.517 367.928 554.414 367.645 555.515 367.645C556.267 367.645 556.935 367.79 557.521 368.08C558.112 368.371 558.568 368.771 558.888 369.282C559.214 369.793 559.377 370.351 559.377 370.957H557.927C557.927 370.296 557.716 369.778 557.296 369.402C556.875 369.022 556.282 368.831 555.515 368.831C554.804 368.831 554.248 368.989 553.848 369.305C553.452 369.615 553.254 370.048 553.254 370.604C553.254 371.05 553.442 371.428 553.818 371.739C554.198 372.044 554.842 372.325 555.748 372.58C556.66 372.835 557.371 373.118 557.882 373.429C558.397 373.734 558.778 374.092 559.023 374.503C559.274 374.914 559.399 375.397 559.399 375.953C559.399 376.839 559.054 377.55 558.362 378.086C557.671 378.617 556.747 378.883 555.59 378.883C554.839 378.883 554.138 378.74 553.487 378.454C552.836 378.164 552.333 377.768 551.977 377.268C551.627 376.767 551.451 376.198 551.451 375.562H552.901C552.901 376.223 553.144 376.747 553.63 377.132C554.121 377.513 554.774 377.703 555.59 377.703C556.352 377.703 556.935 377.548 557.341 377.237C557.746 376.927 557.949 376.504 557.949 375.968C557.949 375.432 557.761 375.019 557.386 374.728C557.01 374.433 556.329 374.142 555.343 373.857ZM564.41 378.883C563.308 378.883 562.411 378.522 561.72 377.801C561.029 377.075 560.684 376.106 560.684 374.894V374.638C560.684 373.832 560.836 373.113 561.142 372.482C561.452 371.846 561.883 371.351 562.434 370.995C562.99 370.634 563.591 370.454 564.237 370.454C565.294 370.454 566.115 370.802 566.701 371.498C567.287 372.194 567.58 373.191 567.58 374.488V375.066H562.073C562.093 375.868 562.326 376.516 562.772 377.012C563.223 377.503 563.794 377.748 564.485 377.748C564.976 377.748 565.391 377.648 565.732 377.448C566.072 377.247 566.37 376.982 566.626 376.652L567.475 377.313C566.793 378.359 565.772 378.883 564.41 378.883ZM564.237 371.596C563.676 371.596 563.205 371.801 562.825 372.212C562.444 372.618 562.209 373.188 562.118 373.925H566.19V373.819C566.15 373.113 565.96 372.567 565.619 372.182C565.279 371.791 564.818 371.596 564.237 371.596ZM571.08 368.636V370.604H572.598V371.679H571.08V376.719C571.08 377.045 571.148 377.29 571.283 377.455C571.418 377.616 571.649 377.696 571.974 377.696C572.135 377.696 572.355 377.666 572.635 377.606V378.732C572.27 378.833 571.914 378.883 571.569 378.883C570.948 378.883 570.479 378.695 570.164 378.319C569.848 377.944 569.691 377.41 569.691 376.719V371.679H568.211V370.604H569.691V368.636H571.08ZM576.113 368.636V370.604H577.631V371.679H576.113V376.719C576.113 377.045 576.181 377.29 576.316 377.455C576.451 377.616 576.682 377.696 577.007 377.696C577.168 377.696 577.388 377.666 577.668 377.606V378.732C577.303 378.833 576.947 378.883 576.602 378.883C575.981 378.883 575.512 378.695 575.197 378.319C574.881 377.944 574.724 377.41 574.724 376.719V371.679H573.244V370.604H574.724V368.636H576.113ZM580.771 378.732H579.381V370.604H580.771V378.732ZM579.268 368.448C579.268 368.223 579.336 368.033 579.471 367.877C579.612 367.722 579.817 367.645 580.087 367.645C580.358 367.645 580.563 367.722 580.703 367.877C580.843 368.033 580.914 368.223 580.914 368.448C580.914 368.674 580.843 368.862 580.703 369.012C580.563 369.162 580.358 369.237 580.087 369.237C579.817 369.237 579.612 369.162 579.471 369.012C579.336 368.862 579.268 368.674 579.268 368.448ZM584.317 370.604L584.362 371.626C584.983 370.845 585.794 370.454 586.796 370.454C588.513 370.454 589.38 371.423 589.395 373.361V378.732H588.005V373.354C588 372.768 587.865 372.335 587.599 372.054C587.339 371.774 586.931 371.633 586.375 371.633C585.924 371.633 585.529 371.754 585.188 371.994C584.847 372.234 584.582 372.55 584.392 372.941V378.732H583.002V370.604H584.317ZM591.16 374.601C591.16 373.334 591.453 372.327 592.039 371.581C592.625 370.83 593.401 370.454 594.368 370.454C595.359 370.454 596.133 370.805 596.689 371.506L596.757 370.604H598.026V378.537C598.026 379.589 597.713 380.418 597.087 381.024C596.466 381.63 595.63 381.932 594.578 381.932C593.992 381.932 593.419 381.807 592.858 381.557C592.297 381.306 591.869 380.963 591.573 380.528L592.294 379.694C592.89 380.43 593.619 380.798 594.48 380.798C595.156 380.798 595.682 380.608 596.058 380.227C596.439 379.847 596.629 379.311 596.629 378.62V377.921C596.073 378.562 595.314 378.883 594.353 378.883C593.401 378.883 592.63 378.499 592.039 377.733C591.453 376.967 591.16 375.923 591.16 374.601ZM592.557 374.758C592.557 375.675 592.745 376.396 593.121 376.922C593.496 377.443 594.022 377.703 594.698 377.703C595.575 377.703 596.218 377.305 596.629 376.509V372.798C596.203 372.022 595.565 371.633 594.713 371.633C594.037 371.633 593.509 371.896 593.128 372.422C592.748 372.948 592.557 373.727 592.557 374.758ZM604.862 376.576C604.862 376.201 604.719 375.91 604.434 375.705C604.153 375.495 603.66 375.314 602.954 375.164C602.253 375.014 601.694 374.834 601.279 374.623C600.868 374.413 600.563 374.163 600.362 373.872C600.167 373.582 600.069 373.236 600.069 372.835C600.069 372.169 600.35 371.606 600.911 371.145C601.477 370.684 602.198 370.454 603.074 370.454C603.996 370.454 604.742 370.692 605.313 371.168C605.889 371.643 606.177 372.252 606.177 372.993H604.779C604.779 372.613 604.617 372.285 604.291 372.009C603.971 371.734 603.565 371.596 603.074 371.596C602.568 371.596 602.173 371.706 601.887 371.926C601.602 372.147 601.459 372.435 601.459 372.79C601.459 373.126 601.592 373.379 601.857 373.549C602.123 373.719 602.601 373.882 603.292 374.037C603.988 374.193 604.552 374.378 604.982 374.593C605.413 374.809 605.731 375.069 605.936 375.374C606.147 375.675 606.252 376.043 606.252 376.479C606.252 377.205 605.961 377.788 605.38 378.229C604.799 378.665 604.046 378.883 603.119 378.883C602.468 378.883 601.892 378.767 601.391 378.537C600.891 378.307 600.498 377.986 600.212 377.576C599.932 377.16 599.791 376.712 599.791 376.231H601.181C601.206 376.697 601.391 377.067 601.737 377.343C602.088 377.613 602.548 377.748 603.119 377.748C603.645 377.748 604.066 377.643 604.381 377.433C604.702 377.217 604.862 376.932 604.862 376.576Z" fill="white"/>
</g>
<g clip-path="url(#clip0)">
<path d="M655.212 229.067H653.942V220.647L651.395 221.582V220.435L655.014 219.076H655.212V229.067ZM659.494 224.082L659.999 219.124H665.094V220.292H661.071L660.771 223.003C661.258 222.716 661.811 222.573 662.43 222.573C663.336 222.573 664.056 222.873 664.588 223.474C665.121 224.071 665.387 224.879 665.387 225.898C665.387 226.923 665.11 227.731 664.554 228.323C664.003 228.91 663.232 229.204 662.239 229.204C661.36 229.204 660.643 228.96 660.088 228.473C659.533 227.986 659.216 227.312 659.139 226.452H660.334C660.411 227.021 660.614 227.451 660.942 227.742C661.269 228.029 661.702 228.173 662.239 228.173C662.826 228.173 663.286 227.972 663.619 227.572C663.956 227.171 664.124 226.618 664.124 225.912C664.124 225.247 663.942 224.715 663.578 224.314C663.218 223.909 662.738 223.706 662.137 223.706C661.586 223.706 661.153 223.827 660.839 224.068L660.505 224.341L659.494 224.082ZM666.856 228.405C666.856 228.186 666.919 228.004 667.047 227.858C667.179 227.713 667.375 227.64 667.634 227.64C667.894 227.64 668.089 227.713 668.221 227.858C668.358 228.004 668.426 228.186 668.426 228.405C668.426 228.614 668.358 228.789 668.221 228.931C668.089 229.072 667.894 229.142 667.634 229.142C667.375 229.142 667.179 229.072 667.047 228.931C666.919 228.789 666.856 228.614 666.856 228.405ZM666.862 222.375C666.862 222.156 666.926 221.974 667.054 221.828C667.186 221.683 667.381 221.61 667.641 221.61C667.901 221.61 668.096 221.683 668.228 221.828C668.365 221.974 668.433 222.156 668.433 222.375C668.433 222.584 668.365 222.759 668.228 222.9C668.096 223.042 667.901 223.112 667.641 223.112C667.381 223.112 667.186 223.042 667.054 222.9C666.926 222.759 666.862 222.584 666.862 222.375ZM674.306 229.067H673.036V220.647L670.489 221.582V220.435L674.108 219.076H674.306V229.067ZM684.427 219.834L680.309 229.067H678.984L683.089 220.162H677.707V219.124H684.427V219.834Z" fill="white"/>
<path d="M641.41 218.228H612.739V230.116H641.41V218.228Z" stroke="#E8E8E8" stroke-width="0.699305"/>
<path d="M634.767 219.277H613.788V229.067H634.767V219.277Z" fill="#E8E8E8"/>
</g>
<rect x="388.612" y="388.509" width="74.1263" height="72.7277" fill="#0178D7"/>
<path fill-rule="evenodd" clip-rule="evenodd" d="M413.288 416.059H437.19V439.961H413.288V416.059ZM418.32 421.72H424.756V428.156H418.32V421.72ZM432.158 421.72H425.721V428.156H432.158V421.72ZM418.32 429.122H424.756V435.558H418.32V429.122ZM432.158 429.122H425.721V435.558H432.158V429.122Z" fill="white"/>
<path fill-rule="evenodd" clip-rule="evenodd" d="M431.442 417.107C430.943 414.132 428.356 411.866 425.239 411.866C422.122 411.866 419.535 414.132 419.036 417.107H417.34C417.853 413.202 421.194 410.188 425.239 410.188C429.284 410.188 432.625 413.202 433.138 417.107H431.442Z" fill="white"/>
<rect x="465.535" y="388.509" width="72.7277" height="72.7277" fill="#0178D7"/>
<g clip-path="url(#clip1)">
<path d="M510.039 421.37L513.088 424.588V421.37H510.039Z" fill="white"/>
<path d="M505.346 421.37H501.37L506.415 426.695H501.722L496.677 421.37H492.452L497.497 426.695H492.803L488.446 422.096C488.394 422.231 488.365 422.378 488.365 422.532V436.993C488.365 437.799 488.984 438.452 489.748 438.452H511.705C512.469 438.452 513.088 437.799 513.088 436.993V426.695H510.391L505.346 421.37Z" fill="white"/>
<path d="M508.929 412.692L504.747 413.331L500.477 419.365L504.659 418.726L508.929 412.692Z" fill="white"/>
<path d="M500.102 414.041L496.167 414.643L491.898 420.677L495.833 420.075L500.102 414.041Z" fill="white"/>
<path d="M512.799 416.306L512.428 413.6L509.304 418.015L511.867 417.623C512.469 417.531 512.886 416.942 512.799 416.306Z" fill="white"/>
<path d="M491.522 415.354L488.856 415.761C488.254 415.853 487.837 416.443 487.924 417.078L488.263 419.548L488.311 419.893L489.414 418.334L491.522 415.354Z" fill="white"/>
</g>
<g clip-path="url(#clip2)">
<path fill-rule="evenodd" clip-rule="evenodd" d="M392.807 230.466C392.807 221.969 399.695 215.081 408.192 215.081V217.004C400.757 217.004 394.73 223.031 394.73 230.466H392.807ZM408.192 230.466V226.62C406.068 226.62 404.346 228.342 404.346 230.466H408.192ZM402.423 230.466C402.423 227.28 405.006 224.697 408.192 224.697V222.774C403.944 222.774 400.5 226.218 400.5 230.466H402.423ZM398.577 230.466C398.577 225.155 402.882 220.85 408.192 220.85V218.927C401.82 218.927 396.654 224.093 396.654 230.466H398.577Z" fill="#F8F8F8"/>
</g>
<defs>
<filter id="filter0_i" x="458.867" y="146.549" width="163.784" height="460.679" filterUnits="userSpaceOnUse" color-interpolation-filters="sRGB">
<feFlood flood-opacity="0" result="BackgroundImageFix"/>
<feBlend mode="normal" in="SourceGraphic" in2="BackgroundImageFix" result="shape"/>
<feColorMatrix in="SourceAlpha" type="matrix" values="0 0 0 0 0 0 0 0 0 0 0 0 0 0 0 0 0 0 127 0" result="hardAlpha"/>
<feOffset dx="4.73239" dy="4.73239"/>
<feGaussianBlur stdDeviation="2.3662"/>
<feComposite in2="hardAlpha" operator="arithmetic" k2="-1" k3="1"/>
<feColorMatrix type="matrix" values="0 0 0 0 1 0 0 0 0 1 0 0 0 0 1 0 0 0 0.53 0"/>
<feBlend mode="normal" in2="shape" result="effect1_innerShadow"/>
</filter>
<filter id="filter1_i" x="363.437" y="188.963" width="357.296" height="357.296" filterUnits="userSpaceOnUse" color-interpolation-filters="sRGB">
<feFlood flood-opacity="0" result="BackgroundImageFix"/>
<feBlend mode="normal" in="SourceGraphic" in2="BackgroundImageFix" result="shape"/>
<feColorMatrix in="SourceAlpha" type="matrix" values="0 0 0 0 0 0 0 0 0 0 0 0 0 0 0 0 0 0 127 0" result="hardAlpha"/>
<feOffset dx="4.73239" dy="4.73239"/>
<feGaussianBlur stdDeviation="2.3662"/>
<feComposite in2="hardAlpha" operator="arithmetic" k2="-1" k3="1"/>
<feColorMatrix type="matrix" values="0 0 0 0 1 0 0 0 0 1 0 0 0 0 1 0 0 0 0.25 0"/>
<feBlend mode="normal" in2="shape" result="effect1_innerShadow"/>
</filter>
<clipPath id="clip0">
<rect width="72.7277" height="12.5875" fill="white" transform="translate(612.389 217.878)"/>
</clipPath>
<clipPath id="clip1">
<rect width="25.175" height="26.5736" fill="white" transform="translate(487.913 412.285)"/>
</clipPath>
<clipPath id="clip2">
<rect width="15.3847" height="15.3847" fill="white" transform="translate(392.807 215.081)"/>
</clipPath>
</defs>
</svg>
