<svg width="638" height="573" viewBox="0 0 638 573" fill="none" xmlns="http://www.w3.org/2000/svg">
<g filter="url(#filter0_di)">
<rect x="2" y="2" width="279" height="567" rx="8" fill="black"/>
</g>
<g filter="url(#filter1_i)">
<circle cx="41.5" cy="41.5" r="21.5" fill="#2C2C2C"/>
</g>
<circle cx="41.5" cy="41.5" r="21" stroke="#3A3A3A"/>
<g filter="url(#filter2_i)">
<circle cx="41.5" cy="41.5" r="19.5" fill="#2C2C2C"/>
</g>
<circle cx="41.5" cy="41.5" r="19" stroke="#2C2C2C"/>
<g filter="url(#filter3_di)">
<circle cx="41.5" cy="41.5" r="16.5" fill="#343434"/>
</g>
<g filter="url(#filter4_i)">
<circle cx="42" cy="94" r="15" fill="#2C2C2C"/>
</g>
<circle cx="42" cy="94" r="14.5" stroke="#3A3A3A"/>
<g filter="url(#filter5_i)">
<circle cx="42" cy="71" r="5" fill="#C4C4C4"/>
</g>
<g filter="url(#filter6_di)">
<circle cx="42" cy="94" r="12" fill="#343434"/>
</g>
<rect x="114" y="140" width="26.0465" height="26.9767" fill="white" fill-opacity="0.91"/>
<rect x="143.953" y="140" width="26.0465" height="26.9767" fill="white" fill-opacity="0.91"/>
<rect x="114" y="171.023" width="26.0465" height="26.9767" fill="white" fill-opacity="0.91"/>
<rect x="143.953" y="171.023" width="26.0465" height="26.9767" fill="white" fill-opacity="0.91"/>
<rect width="11" height="42" transform="matrix(-1 0 0 1 284 121)" fill="black"/>
<rect width="11" height="42" transform="matrix(-1 0 0 1 284 75)" fill="black"/>
<rect width="11" height="58" transform="matrix(-1 0 0 1 11 129)" fill="black"/>
<rect x="353" y="120" width="11" height="42" fill="black"/>
<rect x="353" y="74" width="11" height="42" fill="black"/>
<g filter="url(#filter7_di)">
<rect x="355" y="2" width="279" height="567" rx="8" fill="black"/>
</g>
<rect x="626" y="128" width="11" height="58" fill="black"/>
<mask id="mask0" mask-type="alpha" maskUnits="userSpaceOnUse" x="360" y="15" width="270" height="540">
<path d="M360 18C360 16.3432 361.343 15 363 15H627C628.657 15 630 16.3431 630 18V552C630 553.657 628.657 555 627 555H363C361.343 555 360 553.657 360 552V18Z" fill="#000B14"/>
</mask>
<g mask="url(#mask0)">
<rect x="360" y="15" width="270" height="19" fill="black" fill-opacity="0.76"/>
<rect x="360" y="525" width="270" height="30" fill="black" fill-opacity="0.76"/>
<path d="M598.618 28H597.71V21.9795L595.889 22.6484V21.8281L598.477 20.8564H598.618V28ZM601.68 24.4355L602.041 20.8906H605.684V21.7256H602.808L602.593 23.6641C602.941 23.459 603.337 23.3564 603.779 23.3564C604.427 23.3564 604.941 23.5713 605.322 24.001C605.703 24.4274 605.894 25.0052 605.894 25.7344C605.894 26.4668 605.695 27.0446 605.298 27.4678C604.904 27.8877 604.352 28.0977 603.643 28.0977C603.014 28.0977 602.502 27.9235 602.104 27.5752C601.707 27.2269 601.481 26.7451 601.426 26.1299H602.28C602.336 26.5368 602.48 26.8444 602.715 27.0527C602.949 27.2578 603.258 27.3604 603.643 27.3604C604.062 27.3604 604.391 27.2171 604.629 26.9307C604.87 26.6442 604.99 26.2487 604.99 25.7441C604.99 25.2689 604.86 24.888 604.6 24.6016C604.342 24.3118 603.999 24.167 603.569 24.167C603.175 24.167 602.866 24.2533 602.642 24.4258L602.402 24.6211L601.68 24.4355ZM606.943 27.5264C606.943 27.3701 606.989 27.2399 607.08 27.1357C607.174 27.0316 607.314 26.9795 607.5 26.9795C607.686 26.9795 607.826 27.0316 607.92 27.1357C608.018 27.2399 608.066 27.3701 608.066 27.5264C608.066 27.6761 608.018 27.8014 607.92 27.9023C607.826 28.0033 607.686 28.0537 607.5 28.0537C607.314 28.0537 607.174 28.0033 607.08 27.9023C606.989 27.8014 606.943 27.6761 606.943 27.5264ZM606.948 23.2148C606.948 23.0586 606.994 22.9284 607.085 22.8242C607.179 22.7201 607.319 22.668 607.505 22.668C607.69 22.668 607.83 22.7201 607.925 22.8242C608.022 22.9284 608.071 23.0586 608.071 23.2148C608.071 23.3646 608.022 23.4899 607.925 23.5908C607.83 23.6917 607.69 23.7422 607.505 23.7422C607.319 23.7422 607.179 23.6917 607.085 23.5908C606.994 23.4899 606.948 23.3646 606.948 23.2148ZM612.271 28H611.362V21.9795L609.541 22.6484V21.8281L612.129 20.8564H612.271V28ZM619.507 21.3984L616.562 28H615.615L618.55 21.6328H614.702V20.8906H619.507V21.3984Z" fill="white"/>
<rect x="568.25" y="20.25" width="20.5" height="8.5" stroke="#E8E8E8" stroke-width="0.5"/>
<rect x="569" y="21" width="15" height="7" fill="#E8E8E8"/>
<line x1="371.456" y1="29.4559" x2="381.456" y2="19.456" stroke="white" stroke-opacity="0.49" stroke-width="1.53846"/>
<line x1="374.533" y1="29.4559" x2="381.456" y2="22.5329" stroke="white" stroke-width="1.53846"/>
<line x1="377.61" y1="29.4559" x2="381.456" y2="25.6098" stroke="white" stroke-width="1.53846"/>
<line x1="380.687" y1="29.4559" x2="381.456" y2="28.6867" stroke="white" stroke-width="1.53846"/>
<rect x="0.328814" y="-0.328814" width="7.71447" height="7.71447" transform="matrix(1 0 0 -1 486 549.342)" stroke="#DCDCDC" stroke-width="0.657627"/>
<rect x="0.328814" y="-0.328814" width="7.71447" height="7.71447" transform="matrix(1 0 0 -1 495.628 549.342)" stroke="#DCDCDC" stroke-width="0.657627"/>
<rect x="0.328814" y="-0.328814" width="7.71447" height="7.71447" transform="matrix(1 0 0 -1 486 539.714)" stroke="#DCDCDC" stroke-width="0.657627"/>
<rect x="0.328814" y="-0.328814" width="7.71447" height="7.71447" transform="matrix(1 0 0 -1 495.628 539.714)" stroke="#DCDCDC" stroke-width="0.657627"/>
<circle cx="565.5" cy="541.5" r="7" stroke="#C8C8C8"/>
<circle cx="565.5" cy="541.5" r="9.5" stroke="#343434" stroke-width="2"/>
<line x1="436" y1="540.609" x2="413" y2="540.609" stroke="#CDCDCD" stroke-width="1.21875"/>
<line x1="412.382" y1="541.036" x2="419.3" y2="534.117" stroke="#CDCDCD" stroke-width="1.21875"/>
<line x1="412.431" y1="540.617" x2="419.349" y2="547.536" stroke="#CDCDCD" stroke-width="1.21875"/>
<path fill-rule="evenodd" clip-rule="evenodd" d="M393 30C393 23.9249 397.925 19 404 19V20.375C398.684 20.375 394.375 24.6843 394.375 30H393ZM404 30V27.25C402.481 27.25 401.25 28.4812 401.25 30H404ZM399.875 30C399.875 27.7218 401.722 25.875 404 25.875V24.5C400.962 24.5 398.5 26.9624 398.5 30H399.875ZM397.125 30C397.125 26.203 400.203 23.125 404 23.125V21.75C399.444 21.75 395.75 25.4437 395.75 30H397.125Z" fill="#F8F8F8"/>
</g>
<rect x="363" y="37" width="85" height="85" fill="#0178D7"/>
<rect x="363" y="126" width="85" height="85" fill="#0178D7"/>
<rect x="363" y="215" width="174" height="85" fill="#08D24D"/>
<rect x="542" y="126" width="85" height="85" fill="#109826"/>
<rect x="452" y="37" width="175" height="85" fill="#363636"/>
<path d="M417.559 77.8889H414.939C414.518 77.8889 414.171 77.6571 414.01 77.2682C413.849 76.8793 413.93 76.4697 414.228 76.1721L416.08 74.3204C416.352 74.0482 416.502 73.6858 416.502 73.301C416.502 72.9158 416.352 72.5539 416.08 72.2811L413.719 69.9203C413.174 69.3759 412.225 69.3748 411.68 69.9203L409.828 71.7719C409.582 72.0182 409.311 72.0696 409.127 72.0696C408.868 72.0696 408.61 71.9679 408.42 71.7901C408.279 71.6584 408.111 71.425 408.111 71.061V68.4415C408.111 67.6466 407.465 67 406.67 67H403.33C402.535 67 401.889 67.6466 401.889 68.4415V71.061C401.889 71.6926 401.372 72.0696 400.872 72.0696C400.689 72.0696 400.418 72.0177 400.172 71.7719L398.32 69.9203C397.774 69.3748 396.825 69.3759 396.281 69.9203L393.92 72.2811C393.648 72.5533 393.498 72.9158 393.498 73.301C393.498 73.6858 393.648 74.0477 393.92 74.3204L395.772 76.1721C396.069 76.4697 396.15 76.8793 395.99 77.2682C395.829 77.6571 395.482 77.8889 395.061 77.8889H392.441C391.647 77.8889 391 78.5355 391 79.3304V82.6686C391 83.464 391.647 84.1111 392.441 84.1111H395.061C395.482 84.1111 395.829 84.3429 395.99 84.7318C396.151 85.1207 396.07 85.5303 395.772 85.8279L393.92 87.6796C393.648 87.9518 393.498 88.3142 393.498 88.699C393.498 89.0842 393.648 89.4461 393.92 89.7189L396.281 92.0797C396.826 92.6247 397.775 92.6257 398.32 92.0797L400.172 90.2281C400.418 89.9818 400.689 89.9304 400.873 89.9304C401.372 89.9304 401.889 90.3079 401.889 90.939V93.558C401.889 94.3529 402.535 95 403.33 95H406.669C407.464 95 408.111 94.3529 408.111 93.558V90.939C408.111 90.3074 408.628 89.9304 409.127 89.9304C409.31 89.9304 409.582 89.9823 409.828 90.2281L411.68 92.0797C412.225 92.6252 413.174 92.6241 413.719 92.0797L416.08 89.7189C416.352 89.4467 416.502 89.0842 416.502 88.699C416.502 88.3142 416.352 87.9523 416.08 87.6796L414.228 85.8279C413.93 85.5303 413.849 85.1207 414.01 84.7318C414.171 84.3429 414.518 84.1111 414.939 84.1111H417.559C418.353 84.1111 419 83.464 419 82.6691V79.3304C419 78.5355 418.353 77.8889 417.559 77.8889ZM408.63 81C408.63 83.001 407.001 84.6296 405 84.6296C402.999 84.6296 401.37 83.001 401.37 81C401.37 78.999 402.999 77.3704 405 77.3704C407.001 77.3704 408.63 78.999 408.63 81Z" fill="white"/>
<path d="M501.247 83H497.347V64.1636L491.595 66.1294V62.8262L500.747 59.4585H501.247V83ZM510.447 71.3662L511.72 59.5391H524.321V62.9229H514.975L514.331 68.5303C515.416 67.9072 516.64 67.5957 518.004 67.5957C520.239 67.5957 521.974 68.3101 523.209 69.7388C524.455 71.1675 525.078 73.0903 525.078 75.5073C525.078 77.8921 524.391 79.7935 523.016 81.2114C521.641 82.6187 519.755 83.3223 517.36 83.3223C515.211 83.3223 513.428 82.7153 512.01 81.5015C510.603 80.2769 509.84 78.6655 509.722 76.6675H513.509C513.659 77.8062 514.067 78.6816 514.733 79.2939C515.399 79.8955 516.27 80.1963 517.344 80.1963C518.547 80.1963 519.481 79.7666 520.147 78.9072C520.824 78.0479 521.163 76.877 521.163 75.3945C521.163 73.9658 520.792 72.8379 520.051 72.0107C519.31 71.1729 518.289 70.7539 516.989 70.7539C516.28 70.7539 515.679 70.8506 515.185 71.0439C514.69 71.2266 514.153 71.5918 513.573 72.1396L510.447 71.3662ZM538.984 78.875C539.714 78.875 540.278 79.0845 540.676 79.5034C541.073 79.9116 541.272 80.4272 541.272 81.0503C541.272 81.6626 541.073 82.1729 540.676 82.5811C540.278 82.9785 539.714 83.1772 538.984 83.1772C538.286 83.1772 537.732 82.9785 537.324 82.5811C536.916 82.1836 536.712 81.6733 536.712 81.0503C536.712 80.4272 536.911 79.9116 537.308 79.5034C537.706 79.0845 538.264 78.875 538.984 78.875ZM538.984 65.1948C539.714 65.1948 540.278 65.4043 540.676 65.8232C541.073 66.2314 541.272 66.7471 541.272 67.3701C541.272 67.9824 541.073 68.4927 540.676 68.9009C540.278 69.2983 539.714 69.4971 538.984 69.4971C538.286 69.4971 537.732 69.2983 537.324 68.9009C536.916 68.5034 536.712 67.9932 536.712 67.3701C536.712 66.7471 536.911 66.2314 537.308 65.8232C537.706 65.4043 538.264 65.1948 538.984 65.1948ZM563.959 83H560.06V64.1636L554.308 66.1294V62.8262L563.46 59.4585H563.959V83ZM587.727 61.7144L578.349 83H574.24L583.602 62.6812H571.468V59.5391H587.727V61.7144ZM498.755 99.9658L499.001 101.653L499.361 100.133L501.893 91.2031H503.316L505.786 100.133L506.138 101.68L506.41 99.957L508.396 91.2031H510.093L506.99 104H505.452L502.815 94.6748L502.613 93.6992L502.411 94.6748L499.678 104H498.14L495.046 91.2031H496.733L498.755 99.9658ZM515.384 104.176C514.095 104.176 513.046 103.754 512.237 102.91C511.429 102.061 511.024 100.927 511.024 99.5088V99.21C511.024 98.2666 511.203 97.4258 511.561 96.6875C511.924 95.9434 512.428 95.3633 513.072 94.9473C513.723 94.5254 514.426 94.3145 515.182 94.3145C516.418 94.3145 517.379 94.7217 518.064 95.5361C518.75 96.3506 519.093 97.5166 519.093 99.0342V99.7109H512.65C512.674 100.648 512.946 101.407 513.468 101.987C513.995 102.562 514.663 102.849 515.472 102.849C516.046 102.849 516.532 102.731 516.931 102.497C517.329 102.263 517.678 101.952 517.977 101.565L518.97 102.339C518.173 103.563 516.978 104.176 515.384 104.176ZM515.182 95.6504C514.525 95.6504 513.975 95.8906 513.529 96.3711C513.084 96.8457 512.809 97.5137 512.703 98.375H517.467V98.252C517.42 97.4258 517.197 96.7871 516.799 96.3359C516.4 95.8789 515.861 95.6504 515.182 95.6504ZM520.587 99.166C520.587 97.707 520.933 96.5352 521.624 95.6504C522.315 94.7598 523.221 94.3145 524.34 94.3145C525.453 94.3145 526.335 94.6953 526.985 95.457V90.5H528.611V104H527.117L527.038 102.98C526.388 103.777 525.482 104.176 524.322 104.176C523.221 104.176 522.321 103.725 521.624 102.822C520.933 101.92 520.587 100.742 520.587 99.2891V99.166ZM522.213 99.3506C522.213 100.429 522.436 101.272 522.881 101.882C523.326 102.491 523.941 102.796 524.727 102.796C525.758 102.796 526.511 102.333 526.985 101.407V97.0391C526.499 96.1426 525.752 95.6943 524.744 95.6943C523.947 95.6943 523.326 96.002 522.881 96.6172C522.436 97.2324 522.213 98.1436 522.213 99.3506ZM531.178 103.147C531.178 102.866 531.26 102.632 531.424 102.444C531.594 102.257 531.846 102.163 532.18 102.163C532.514 102.163 532.766 102.257 532.936 102.444C533.111 102.632 533.199 102.866 533.199 103.147C533.199 103.417 533.111 103.643 532.936 103.824C532.766 104.006 532.514 104.097 532.18 104.097C531.846 104.097 531.594 104.006 531.424 103.824C531.26 103.643 531.178 103.417 531.178 103.147ZM545.97 91.2031H547.666V100.265C547.666 101.489 547.297 102.447 546.559 103.139C545.826 103.83 544.848 104.176 543.623 104.176C542.352 104.176 541.361 103.851 540.652 103.2C539.943 102.55 539.589 101.639 539.589 100.467H541.276C541.276 101.199 541.476 101.771 541.874 102.181C542.278 102.591 542.861 102.796 543.623 102.796C544.32 102.796 544.883 102.576 545.311 102.137C545.744 101.697 545.964 101.082 545.97 100.291V91.2031ZM556.156 103.06C555.523 103.804 554.595 104.176 553.37 104.176C552.356 104.176 551.583 103.883 551.05 103.297C550.522 102.705 550.256 101.832 550.25 100.678V94.4902H551.876V100.634C551.876 102.075 552.462 102.796 553.634 102.796C554.876 102.796 555.702 102.333 556.112 101.407V94.4902H557.738V104H556.191L556.156 103.06ZM561.755 94.4902L561.808 95.6855C562.534 94.7715 563.483 94.3145 564.655 94.3145C566.665 94.3145 567.679 95.4482 567.696 97.7158V104H566.07V97.707C566.064 97.0215 565.906 96.5146 565.596 96.1865C565.291 95.8584 564.813 95.6943 564.163 95.6943C563.636 95.6943 563.173 95.835 562.774 96.1162C562.376 96.3975 562.065 96.7666 561.843 97.2236V104H560.217V94.4902H561.755ZM576.811 96.8105H578.032C578.8 96.7988 579.403 96.5967 579.843 96.2041C580.282 95.8115 580.502 95.2812 580.502 94.6133C580.502 93.1133 579.755 92.3633 578.261 92.3633C577.558 92.3633 576.995 92.5654 576.573 92.9697C576.157 93.3682 575.949 93.8984 575.949 94.5605H574.323C574.323 93.5469 574.692 92.7061 575.431 92.0381C576.175 91.3643 577.118 91.0273 578.261 91.0273C579.468 91.0273 580.414 91.3467 581.1 91.9854C581.785 92.624 582.128 93.5117 582.128 94.6484C582.128 95.2051 581.946 95.7441 581.583 96.2656C581.226 96.7871 580.736 97.1768 580.115 97.4346C580.818 97.6572 581.36 98.0264 581.741 98.542C582.128 99.0576 582.321 99.6875 582.321 100.432C582.321 101.58 581.946 102.491 581.196 103.165C580.446 103.839 579.471 104.176 578.27 104.176C577.068 104.176 576.09 103.851 575.334 103.2C574.584 102.55 574.209 101.691 574.209 100.625H575.844C575.844 101.299 576.063 101.838 576.503 102.242C576.942 102.646 577.531 102.849 578.27 102.849C579.055 102.849 579.655 102.644 580.071 102.233C580.487 101.823 580.695 101.234 580.695 100.467C580.695 99.7227 580.467 99.1514 580.01 98.7529C579.553 98.3545 578.894 98.1494 578.032 98.1377H576.811V96.8105Z" fill="white"/>
<path d="M369.044 115.782C368.481 115.62 368.071 115.422 367.813 115.187C367.558 114.95 367.431 114.658 367.431 114.312C367.431 113.92 367.587 113.597 367.899 113.341C368.213 113.084 368.621 112.955 369.123 112.955C369.464 112.955 369.769 113.021 370.035 113.153C370.304 113.285 370.511 113.468 370.657 113.7C370.805 113.933 370.879 114.187 370.879 114.462H370.22C370.22 114.162 370.124 113.926 369.933 113.755C369.741 113.582 369.471 113.495 369.123 113.495C368.799 113.495 368.546 113.567 368.364 113.71C368.184 113.852 368.094 114.049 368.094 114.302C368.094 114.505 368.179 114.677 368.35 114.818C368.523 114.957 368.816 115.084 369.229 115.201C369.643 115.317 369.967 115.446 370.199 115.587C370.434 115.726 370.607 115.889 370.719 116.076C370.833 116.263 370.89 116.482 370.89 116.735C370.89 117.139 370.732 117.462 370.418 117.706C370.104 117.948 369.683 118.068 369.157 118.068C368.815 118.068 368.496 118.003 368.2 117.874C367.903 117.741 367.674 117.561 367.513 117.333C367.353 117.106 367.273 116.847 367.273 116.558H367.933C367.933 116.858 368.044 117.097 368.265 117.272C368.488 117.445 368.785 117.532 369.157 117.532C369.503 117.532 369.769 117.461 369.953 117.32C370.138 117.179 370.23 116.986 370.23 116.742C370.23 116.498 370.145 116.31 369.974 116.178C369.803 116.044 369.493 115.912 369.044 115.782ZM373.169 118.068C372.668 118.068 372.26 117.904 371.946 117.576C371.631 117.246 371.474 116.805 371.474 116.253V116.137C371.474 115.77 371.544 115.443 371.683 115.156C371.824 114.867 372.02 114.641 372.271 114.479C372.523 114.315 372.797 114.233 373.091 114.233C373.572 114.233 373.945 114.392 374.212 114.708C374.479 115.025 374.612 115.479 374.612 116.069V116.332H372.106C372.116 116.697 372.222 116.992 372.424 117.217C372.629 117.441 372.889 117.552 373.204 117.552C373.427 117.552 373.616 117.507 373.771 117.416C373.926 117.324 374.062 117.204 374.178 117.053L374.564 117.354C374.254 117.83 373.789 118.068 373.169 118.068ZM373.091 114.753C372.836 114.753 372.621 114.846 372.448 115.033C372.275 115.218 372.168 115.478 372.127 115.812H373.979V115.765C373.961 115.443 373.875 115.195 373.72 115.02C373.565 114.842 373.355 114.753 373.091 114.753ZM376.205 113.406V114.302H376.895V114.791H376.205V117.084C376.205 117.232 376.235 117.344 376.297 117.419C376.358 117.492 376.463 117.528 376.611 117.528C376.684 117.528 376.785 117.515 376.912 117.487V118C376.746 118.046 376.584 118.068 376.427 118.068C376.144 118.068 375.931 117.983 375.788 117.812C375.644 117.641 375.572 117.398 375.572 117.084V114.791H374.899V114.302H375.572V113.406H376.205ZM378.495 113.406V114.302H379.185V114.791H378.495V117.084C378.495 117.232 378.525 117.344 378.587 117.419C378.648 117.492 378.753 117.528 378.901 117.528C378.974 117.528 379.075 117.515 379.202 117.487V118C379.036 118.046 378.874 118.068 378.717 118.068C378.434 118.068 378.221 117.983 378.078 117.812C377.934 117.641 377.862 117.398 377.862 117.084V114.791H377.189V114.302H377.862V113.406H378.495ZM380.614 118H379.981V114.302H380.614V118ZM379.93 113.321C379.93 113.218 379.961 113.132 380.022 113.061C380.086 112.99 380.18 112.955 380.303 112.955C380.426 112.955 380.519 112.99 380.583 113.061C380.647 113.132 380.679 113.218 380.679 113.321C380.679 113.423 380.647 113.509 380.583 113.577C380.519 113.646 380.426 113.68 380.303 113.68C380.18 113.68 380.086 113.646 380.022 113.577C379.961 113.509 379.93 113.423 379.93 113.321ZM382.227 114.302L382.248 114.767C382.53 114.411 382.899 114.233 383.355 114.233C384.137 114.233 384.531 114.674 384.538 115.556V118H383.905V115.553C383.903 115.286 383.841 115.089 383.721 114.961C383.602 114.834 383.417 114.77 383.164 114.77C382.958 114.77 382.778 114.825 382.624 114.934C382.469 115.043 382.348 115.187 382.261 115.365V118H381.629V114.302H382.227ZM385.341 116.12C385.341 115.544 385.474 115.086 385.741 114.746C386.007 114.404 386.361 114.233 386.8 114.233C387.251 114.233 387.604 114.393 387.856 114.712L387.887 114.302H388.465V117.911C388.465 118.39 388.322 118.767 388.038 119.042C387.755 119.318 387.375 119.456 386.896 119.456C386.629 119.456 386.368 119.399 386.113 119.285C385.858 119.171 385.663 119.015 385.529 118.817L385.857 118.438C386.128 118.772 386.46 118.94 386.852 118.94C387.159 118.94 387.398 118.853 387.569 118.68C387.743 118.507 387.829 118.263 387.829 117.949V117.631C387.576 117.923 387.231 118.068 386.793 118.068C386.361 118.068 386.01 117.894 385.741 117.545C385.474 117.197 385.341 116.722 385.341 116.12ZM385.977 116.192C385.977 116.609 386.062 116.937 386.233 117.176C386.404 117.413 386.643 117.532 386.951 117.532C387.349 117.532 387.642 117.351 387.829 116.988V115.3C387.635 114.947 387.345 114.77 386.958 114.77C386.65 114.77 386.41 114.89 386.236 115.129C386.063 115.368 385.977 115.722 385.977 116.192ZM391.575 117.019C391.575 116.848 391.51 116.716 391.38 116.623C391.253 116.527 391.028 116.445 390.707 116.376C390.388 116.308 390.134 116.226 389.945 116.13C389.758 116.035 389.619 115.921 389.528 115.789C389.439 115.656 389.395 115.499 389.395 115.317C389.395 115.014 389.522 114.757 389.777 114.548C390.035 114.338 390.363 114.233 390.762 114.233C391.181 114.233 391.521 114.342 391.78 114.558C392.042 114.775 392.173 115.051 392.173 115.389H391.538C391.538 115.215 391.464 115.066 391.315 114.941C391.17 114.816 390.985 114.753 390.762 114.753C390.532 114.753 390.352 114.803 390.222 114.903C390.092 115.004 390.027 115.135 390.027 115.296C390.027 115.449 390.087 115.564 390.208 115.642C390.329 115.719 390.546 115.793 390.861 115.864C391.178 115.934 391.434 116.019 391.63 116.117C391.826 116.215 391.971 116.333 392.064 116.472C392.16 116.609 392.208 116.776 392.208 116.975C392.208 117.305 392.075 117.57 391.811 117.771C391.547 117.969 391.204 118.068 390.782 118.068C390.486 118.068 390.224 118.016 389.996 117.911C389.768 117.806 389.589 117.66 389.459 117.474C389.332 117.285 389.268 117.081 389.268 116.862H389.9C389.912 117.074 389.996 117.242 390.153 117.368C390.313 117.491 390.522 117.552 390.782 117.552C391.021 117.552 391.213 117.504 391.356 117.409C391.502 117.311 391.575 117.181 391.575 117.019Z" fill="white"/>
<path d="M369.044 204.782C368.481 204.62 368.071 204.422 367.813 204.187C367.558 203.95 367.431 203.658 367.431 203.312C367.431 202.92 367.587 202.597 367.899 202.341C368.213 202.084 368.621 201.955 369.123 201.955C369.464 201.955 369.769 202.021 370.035 202.153C370.304 202.285 370.511 202.468 370.657 202.7C370.805 202.933 370.879 203.187 370.879 203.462H370.22C370.22 203.162 370.124 202.926 369.933 202.755C369.741 202.582 369.471 202.495 369.123 202.495C368.799 202.495 368.546 202.567 368.364 202.71C368.184 202.852 368.094 203.049 368.094 203.302C368.094 203.505 368.179 203.677 368.35 203.818C368.523 203.957 368.816 204.084 369.229 204.201C369.643 204.317 369.967 204.446 370.199 204.587C370.434 204.726 370.607 204.889 370.719 205.076C370.833 205.263 370.89 205.482 370.89 205.735C370.89 206.139 370.732 206.462 370.418 206.706C370.104 206.948 369.683 207.068 369.157 207.068C368.815 207.068 368.496 207.003 368.2 206.874C367.903 206.741 367.674 206.561 367.513 206.333C367.353 206.106 367.273 205.847 367.273 205.558H367.933C367.933 205.858 368.044 206.097 368.265 206.272C368.488 206.445 368.785 206.532 369.157 206.532C369.503 206.532 369.769 206.461 369.953 206.32C370.138 206.179 370.23 205.986 370.23 205.742C370.23 205.498 370.145 205.31 369.974 205.178C369.803 205.044 369.493 204.912 369.044 204.782ZM372.493 202.406V203.302H373.183V203.791H372.493V206.084C372.493 206.232 372.523 206.344 372.585 206.419C372.646 206.492 372.751 206.528 372.899 206.528C372.972 206.528 373.073 206.515 373.2 206.487V207C373.034 207.046 372.872 207.068 372.715 207.068C372.432 207.068 372.219 206.983 372.076 206.812C371.932 206.641 371.86 206.398 371.86 206.084V203.791H371.187V203.302H371.86V202.406H372.493ZM373.689 205.117C373.689 204.754 373.76 204.429 373.901 204.139C374.044 203.85 374.243 203.626 374.496 203.469C374.751 203.312 375.041 203.233 375.367 203.233C375.871 203.233 376.278 203.408 376.587 203.756C376.9 204.105 377.056 204.569 377.056 205.147V205.192C377.056 205.552 376.986 205.875 376.847 206.163C376.71 206.447 376.513 206.67 376.256 206.829C376.001 206.989 375.707 207.068 375.374 207.068C374.873 207.068 374.466 206.894 374.154 206.545C373.844 206.197 373.689 205.735 373.689 205.161V205.117ZM374.325 205.192C374.325 205.602 374.419 205.931 374.608 206.18C374.8 206.428 375.055 206.552 375.374 206.552C375.695 206.552 375.951 206.427 376.14 206.176C376.329 205.923 376.423 205.57 376.423 205.117C376.423 204.711 376.326 204.383 376.133 204.132C375.941 203.879 375.686 203.753 375.367 203.753C375.055 203.753 374.803 203.877 374.612 204.125C374.42 204.374 374.325 204.729 374.325 205.192ZM379.636 203.869C379.541 203.853 379.437 203.845 379.325 203.845C378.91 203.845 378.629 204.022 378.481 204.375V207H377.849V203.302H378.464L378.474 203.729C378.681 203.399 378.975 203.233 379.356 203.233C379.479 203.233 379.572 203.249 379.636 203.281V203.869ZM381.687 207.068C381.186 207.068 380.778 206.904 380.463 206.576C380.149 206.246 379.992 205.805 379.992 205.253V205.137C379.992 204.77 380.061 204.443 380.2 204.156C380.341 203.867 380.537 203.641 380.788 203.479C381.041 203.315 381.314 203.233 381.608 203.233C382.089 203.233 382.463 203.392 382.729 203.708C382.996 204.025 383.129 204.479 383.129 205.069V205.332H380.624C380.633 205.697 380.739 205.992 380.942 206.217C381.147 206.441 381.407 206.552 381.721 206.552C381.944 206.552 382.134 206.507 382.289 206.416C382.444 206.324 382.579 206.204 382.695 206.053L383.082 206.354C382.772 206.83 382.307 207.068 381.687 207.068ZM381.608 203.753C381.353 203.753 381.139 203.846 380.966 204.033C380.793 204.218 380.686 204.478 380.645 204.812H382.497V204.765C382.479 204.443 382.392 204.195 382.237 204.02C382.082 203.842 381.873 203.753 381.608 203.753Z" fill="white"/>
<path d="M548.201 203.931L549.394 202.023H550.167L548.594 204.491L550.204 207H549.425L548.201 205.059L546.971 207H546.195L547.808 204.491L546.232 202.023H547.001L548.201 203.931ZM553.998 205.192C553.998 205.757 553.868 206.212 553.608 206.556C553.349 206.897 553 207.068 552.562 207.068C552.095 207.068 551.734 206.903 551.479 206.573L551.448 207H550.867V201.75H551.5V203.708C551.755 203.392 552.107 203.233 552.556 203.233C553.005 203.233 553.357 203.403 553.612 203.743C553.869 204.082 553.998 204.547 553.998 205.137V205.192ZM553.366 205.12C553.366 204.689 553.283 204.357 553.116 204.122C552.95 203.887 552.711 203.77 552.398 203.77C551.981 203.77 551.682 203.964 551.5 204.351V205.951C551.693 206.338 551.995 206.532 552.405 206.532C552.708 206.532 552.944 206.414 553.113 206.18C553.281 205.945 553.366 205.592 553.366 205.12ZM554.63 205.117C554.63 204.754 554.701 204.429 554.842 204.139C554.986 203.85 555.184 203.626 555.437 203.469C555.692 203.312 555.983 203.233 556.309 203.233C556.812 203.233 557.219 203.408 557.529 203.756C557.841 204.105 557.997 204.569 557.997 205.147V205.192C557.997 205.552 557.928 205.875 557.789 206.163C557.652 206.447 557.455 206.67 557.197 206.829C556.942 206.989 556.648 207.068 556.315 207.068C555.814 207.068 555.407 206.894 555.095 206.545C554.785 206.197 554.63 205.735 554.63 205.161V205.117ZM555.266 205.192C555.266 205.602 555.361 205.931 555.55 206.18C555.741 206.428 555.996 206.552 556.315 206.552C556.637 206.552 556.892 206.427 557.081 206.176C557.27 205.923 557.365 205.57 557.365 205.117C557.365 204.711 557.268 204.383 557.074 204.132C556.883 203.879 556.628 203.753 556.309 203.753C555.996 203.753 555.745 203.877 555.553 204.125C555.362 204.374 555.266 204.729 555.266 205.192ZM559.956 204.652L560.776 203.302H561.514L560.304 205.13L561.552 207H560.82L559.966 205.616L559.111 207H558.376L559.624 205.13L558.414 203.302H559.146L559.956 204.652Z" fill="white"/>
<rect x="452" y="393" width="85" height="85" fill="#0CC68E"/>
<rect x="542" y="215" width="85" height="85" fill="#0178D7"/>
<rect x="452" y="304" width="85" height="85" fill="#EAA011"/>
<rect x="542" y="304" width="85" height="85" fill="#FE4646"/>
<rect x="452" y="126" width="85" height="85" fill="#00A5EC"/>
<path d="M457.234 472.052V474H456.578V469.023H458.413C458.958 469.023 459.384 469.162 459.691 469.44C460.001 469.718 460.156 470.086 460.156 470.544C460.156 471.028 460.005 471.4 459.702 471.662C459.401 471.922 458.969 472.052 458.406 472.052H457.234ZM457.234 471.515H458.413C458.764 471.515 459.033 471.433 459.22 471.269C459.407 471.103 459.5 470.863 459.5 470.551C459.5 470.255 459.407 470.018 459.22 469.84C459.033 469.663 458.777 469.57 458.451 469.563H457.234V471.515ZM461.527 470.75C461.807 470.405 462.172 470.233 462.621 470.233C463.402 470.233 463.796 470.674 463.803 471.556V474H463.171V471.553C463.169 471.286 463.107 471.089 462.986 470.961C462.868 470.834 462.682 470.77 462.429 470.77C462.224 470.77 462.044 470.825 461.889 470.934C461.734 471.043 461.613 471.187 461.527 471.365V474H460.895V468.75H461.527V470.75ZM464.583 472.117C464.583 471.754 464.653 471.429 464.794 471.139C464.938 470.85 465.136 470.626 465.389 470.469C465.644 470.312 465.935 470.233 466.261 470.233C466.764 470.233 467.171 470.408 467.481 470.756C467.793 471.105 467.949 471.569 467.949 472.147V472.192C467.949 472.552 467.88 472.875 467.741 473.163C467.604 473.447 467.407 473.67 467.149 473.829C466.894 473.989 466.6 474.068 466.268 474.068C465.766 474.068 465.36 473.894 465.047 473.545C464.737 473.197 464.583 472.735 464.583 472.161V472.117ZM465.218 472.192C465.218 472.602 465.313 472.931 465.502 473.18C465.693 473.428 465.949 473.552 466.268 473.552C466.589 473.552 466.844 473.427 467.033 473.176C467.222 472.923 467.317 472.57 467.317 472.117C467.317 471.711 467.22 471.383 467.026 471.132C466.835 470.879 466.58 470.753 466.261 470.753C465.949 470.753 465.697 470.877 465.505 471.125C465.314 471.374 465.218 471.729 465.218 472.192ZM469.34 470.302L469.361 470.767C469.643 470.411 470.013 470.233 470.468 470.233C471.25 470.233 471.644 470.674 471.651 471.556V474H471.019V471.553C471.016 471.286 470.955 471.089 470.834 470.961C470.715 470.834 470.53 470.77 470.277 470.77C470.072 470.77 469.892 470.825 469.737 470.934C469.582 471.043 469.461 471.187 469.375 471.365V474H468.742V470.302H469.34ZM474.139 474.068C473.638 474.068 473.23 473.904 472.916 473.576C472.601 473.246 472.444 472.805 472.444 472.253V472.137C472.444 471.77 472.513 471.443 472.652 471.156C472.794 470.867 472.99 470.641 473.24 470.479C473.493 470.315 473.767 470.233 474.061 470.233C474.541 470.233 474.915 470.392 475.182 470.708C475.448 471.025 475.582 471.479 475.582 472.069V472.332H473.076C473.085 472.697 473.191 472.992 473.394 473.217C473.599 473.441 473.859 473.552 474.173 473.552C474.397 473.552 474.586 473.507 474.741 473.416C474.896 473.324 475.031 473.204 475.147 473.053L475.534 473.354C475.224 473.83 474.759 474.068 474.139 474.068ZM474.061 470.753C473.805 470.753 473.591 470.846 473.418 471.033C473.245 471.218 473.138 471.478 473.097 471.812H474.949V471.765C474.931 471.443 474.844 471.195 474.689 471.02C474.535 470.842 474.325 470.753 474.061 470.753Z" fill="white"/>
<path d="M547.425 291.023L549.052 295.084L550.679 291.023H551.53V296H550.874V294.062L550.936 291.97L549.302 296H548.799L547.169 291.98L547.234 294.062V296H546.578V291.023H547.425ZM552.422 294.117C552.422 293.754 552.493 293.429 552.634 293.139C552.778 292.85 552.976 292.626 553.229 292.469C553.484 292.312 553.775 292.233 554.101 292.233C554.604 292.233 555.011 292.408 555.321 292.756C555.633 293.105 555.789 293.569 555.789 294.147V294.192C555.789 294.552 555.72 294.875 555.581 295.163C555.444 295.447 555.247 295.67 554.989 295.829C554.734 295.989 554.44 296.068 554.107 296.068C553.606 296.068 553.199 295.894 552.887 295.545C552.577 295.197 552.422 294.735 552.422 294.161V294.117ZM553.058 294.192C553.058 294.602 553.153 294.931 553.342 295.18C553.533 295.428 553.788 295.552 554.107 295.552C554.429 295.552 554.684 295.427 554.873 295.176C555.062 294.923 555.157 294.57 555.157 294.117C555.157 293.711 555.06 293.383 554.866 293.132C554.675 292.879 554.42 292.753 554.101 292.753C553.788 292.753 553.537 292.877 553.345 293.125C553.154 293.374 553.058 293.729 553.058 294.192ZM557.748 295.142L558.664 292.302H559.31L557.983 296H557.501L556.162 292.302H556.808L557.748 295.142ZM560.605 296H559.973V292.302H560.605V296ZM559.921 291.321C559.921 291.218 559.952 291.132 560.014 291.061C560.077 290.99 560.171 290.955 560.294 290.955C560.417 290.955 560.51 290.99 560.574 291.061C560.638 291.132 560.67 291.218 560.67 291.321C560.67 291.423 560.638 291.509 560.574 291.577C560.51 291.646 560.417 291.68 560.294 291.68C560.171 291.68 560.077 291.646 560.014 291.577C559.952 291.509 559.921 291.423 559.921 291.321ZM563.155 296.068C562.653 296.068 562.246 295.904 561.931 295.576C561.617 295.246 561.459 294.805 561.459 294.253V294.137C561.459 293.77 561.529 293.443 561.668 293.156C561.809 292.867 562.005 292.641 562.256 292.479C562.509 292.315 562.782 292.233 563.076 292.233C563.557 292.233 563.931 292.392 564.197 292.708C564.464 293.025 564.597 293.479 564.597 294.069V294.332H562.092C562.101 294.697 562.207 294.992 562.41 295.217C562.615 295.441 562.875 295.552 563.189 295.552C563.412 295.552 563.601 295.507 563.756 295.416C563.911 295.324 564.047 295.204 564.163 295.053L564.549 295.354C564.239 295.83 563.775 296.068 563.155 296.068ZM563.076 292.753C562.821 292.753 562.607 292.846 562.434 293.033C562.26 293.218 562.153 293.478 562.112 293.812H563.965V293.765C563.947 293.443 563.86 293.195 563.705 293.02C563.55 292.842 563.34 292.753 563.076 292.753ZM567.485 295.019C567.485 294.848 567.42 294.716 567.291 294.623C567.163 294.527 566.938 294.445 566.617 294.376C566.298 294.308 566.044 294.226 565.855 294.13C565.668 294.035 565.529 293.921 565.438 293.789C565.349 293.656 565.305 293.499 565.305 293.317C565.305 293.014 565.432 292.757 565.688 292.548C565.945 292.338 566.273 292.233 566.672 292.233C567.091 292.233 567.431 292.342 567.69 292.558C567.952 292.775 568.083 293.051 568.083 293.389H567.448C567.448 293.215 567.374 293.066 567.226 292.941C567.08 292.816 566.895 292.753 566.672 292.753C566.442 292.753 566.262 292.803 566.132 292.903C566.002 293.004 565.937 293.135 565.937 293.296C565.937 293.449 565.997 293.564 566.118 293.642C566.239 293.719 566.457 293.793 566.771 293.864C567.088 293.934 567.344 294.019 567.54 294.117C567.736 294.215 567.881 294.333 567.974 294.472C568.07 294.609 568.118 294.776 568.118 294.975C568.118 295.305 567.986 295.57 567.721 295.771C567.457 295.969 567.114 296.068 566.692 296.068C566.396 296.068 566.134 296.016 565.906 295.911C565.678 295.806 565.5 295.66 565.37 295.474C565.242 295.285 565.178 295.081 565.178 294.862H565.811C565.822 295.074 565.906 295.242 566.063 295.368C566.223 295.491 566.433 295.552 566.692 295.552C566.932 295.552 567.123 295.504 567.267 295.409C567.412 295.311 567.485 295.181 567.485 295.019ZM570.544 294.664C570.544 294.424 570.611 294.204 570.743 294.004C570.877 293.803 571.132 293.57 571.508 293.303C571.287 293.034 571.139 292.818 571.064 292.654C570.989 292.49 570.951 292.327 570.951 292.165C570.951 291.787 571.063 291.491 571.286 291.276C571.509 291.062 571.812 290.955 572.195 290.955C572.537 290.955 572.82 291.055 573.043 291.256C573.266 291.454 573.378 291.705 573.378 292.008C573.378 292.208 573.327 292.394 573.224 292.565C573.124 292.734 572.947 292.911 572.694 293.098L572.329 293.368L573.436 294.691C573.591 294.395 573.668 294.065 573.668 293.703H574.239C574.239 294.284 574.099 294.766 573.819 295.149L574.53 296H573.771L573.439 295.607C573.271 295.757 573.073 295.872 572.845 295.952C572.619 296.03 572.389 296.068 572.154 296.068C571.669 296.068 571.279 295.94 570.985 295.682C570.691 295.425 570.544 295.085 570.544 294.664ZM572.154 295.552C572.489 295.552 572.796 295.425 573.074 295.169L571.86 293.717L571.748 293.799C571.367 294.079 571.177 294.367 571.177 294.664C571.177 294.932 571.263 295.148 571.437 295.31C571.612 295.471 571.851 295.552 572.154 295.552ZM571.583 292.145C571.583 292.363 571.718 292.637 571.987 292.965L572.39 292.681C572.545 292.572 572.651 292.468 572.708 292.37C572.765 292.27 572.793 292.149 572.793 292.008C572.793 291.855 572.736 291.729 572.623 291.628C572.509 291.526 572.365 291.475 572.192 291.475C572.005 291.475 571.857 291.538 571.748 291.666C571.638 291.791 571.583 291.951 571.583 292.145ZM580.169 291.563H578.57V296H577.917V291.563H576.321V291.023H580.169V291.563ZM582.61 295.128L584.032 291.023H584.75L582.904 296H582.323L580.48 291.023H581.195L582.61 295.128Z" fill="white"/>
<path d="M368.044 293.782C367.481 293.62 367.071 293.422 366.813 293.187C366.558 292.95 366.431 292.658 366.431 292.312C366.431 291.92 366.587 291.597 366.899 291.341C367.213 291.084 367.621 290.955 368.123 290.955C368.464 290.955 368.769 291.021 369.035 291.153C369.304 291.285 369.511 291.468 369.657 291.7C369.805 291.933 369.879 292.187 369.879 292.462H369.22C369.22 292.162 369.124 291.926 368.933 291.755C368.741 291.582 368.471 291.495 368.123 291.495C367.799 291.495 367.546 291.567 367.364 291.71C367.184 291.852 367.094 292.049 367.094 292.302C367.094 292.505 367.179 292.677 367.35 292.818C367.523 292.957 367.816 293.084 368.229 293.201C368.643 293.317 368.967 293.446 369.199 293.587C369.434 293.726 369.607 293.889 369.719 294.076C369.833 294.263 369.89 294.482 369.89 294.735C369.89 295.139 369.732 295.462 369.418 295.706C369.104 295.948 368.683 296.068 368.157 296.068C367.815 296.068 367.496 296.003 367.2 295.874C366.903 295.741 366.674 295.561 366.513 295.333C366.353 295.106 366.273 294.847 366.273 294.558H366.933C366.933 294.858 367.044 295.097 367.265 295.272C367.488 295.445 367.785 295.532 368.157 295.532C368.503 295.532 368.769 295.461 368.953 295.32C369.138 295.179 369.23 294.986 369.23 294.742C369.23 294.498 369.145 294.31 368.974 294.178C368.803 294.044 368.493 293.912 368.044 293.782ZM373.759 294.192C373.759 294.755 373.63 295.208 373.373 295.552C373.115 295.896 372.766 296.068 372.327 296.068C371.878 296.068 371.525 295.926 371.267 295.641V297.422H370.635V292.302H371.212L371.243 292.712C371.501 292.393 371.858 292.233 372.316 292.233C372.761 292.233 373.112 292.401 373.369 292.736C373.629 293.071 373.759 293.537 373.759 294.134V294.192ZM373.126 294.12C373.126 293.703 373.038 293.374 372.86 293.132C372.682 292.891 372.438 292.77 372.128 292.77C371.746 292.77 371.458 292.94 371.267 293.279V295.046C371.456 295.384 371.746 295.552 372.135 295.552C372.438 295.552 372.679 295.433 372.856 295.193C373.036 294.952 373.126 294.594 373.126 294.12ZM374.398 294.117C374.398 293.754 374.469 293.429 374.61 293.139C374.753 292.85 374.952 292.626 375.205 292.469C375.46 292.312 375.75 292.233 376.076 292.233C376.58 292.233 376.986 292.408 377.296 292.756C377.609 293.105 377.765 293.569 377.765 294.147V294.192C377.765 294.552 377.695 294.875 377.556 295.163C377.419 295.447 377.222 295.67 376.965 295.829C376.71 295.989 376.416 296.068 376.083 296.068C375.582 296.068 375.175 295.894 374.863 295.545C374.553 295.197 374.398 294.735 374.398 294.161V294.117ZM375.034 294.192C375.034 294.602 375.128 294.931 375.317 295.18C375.509 295.428 375.764 295.552 376.083 295.552C376.404 295.552 376.66 295.427 376.849 295.176C377.038 294.923 377.132 294.57 377.132 294.117C377.132 293.711 377.035 293.383 376.842 293.132C376.65 292.879 376.395 292.753 376.076 292.753C375.764 292.753 375.512 292.877 375.321 293.125C375.129 293.374 375.034 293.729 375.034 294.192ZM379.416 291.406V292.302H380.106V292.791H379.416V295.084C379.416 295.232 379.446 295.344 379.508 295.419C379.569 295.492 379.674 295.528 379.822 295.528C379.895 295.528 379.995 295.515 380.123 295.487V296C379.957 296.046 379.795 296.068 379.638 296.068C379.355 296.068 379.142 295.983 378.999 295.812C378.855 295.641 378.783 295.398 378.783 295.084V292.791H378.11V292.302H378.783V291.406H379.416ZM381.535 296H380.902V292.302H381.535V296ZM380.851 291.321C380.851 291.218 380.882 291.132 380.943 291.061C381.007 290.99 381.101 290.955 381.224 290.955C381.347 290.955 381.44 290.99 381.504 291.061C381.568 291.132 381.6 291.218 381.6 291.321C381.6 291.423 381.568 291.509 381.504 291.577C381.44 291.646 381.347 291.68 381.224 291.68C381.101 291.68 381.007 291.646 380.943 291.577C380.882 291.509 380.851 291.423 380.851 291.321ZM382.861 296V292.791H382.276V292.302H382.861V291.922C382.861 291.526 382.967 291.219 383.179 291.003C383.391 290.786 383.69 290.678 384.078 290.678C384.223 290.678 384.368 290.698 384.512 290.736L384.478 291.249C384.37 291.229 384.257 291.218 384.136 291.218C383.931 291.218 383.772 291.279 383.661 291.399C383.549 291.518 383.493 291.689 383.493 291.912V292.302H384.283V292.791H383.493V296H382.861ZM386.193 295.074L387.055 292.302H387.731L386.245 296.571C386.014 297.186 385.649 297.494 385.147 297.494L385.028 297.483L384.792 297.439V296.926L384.963 296.94C385.177 296.94 385.343 296.897 385.462 296.81C385.583 296.723 385.682 296.565 385.759 296.335L385.899 295.959L384.58 292.302H385.271L386.193 295.074Z" fill="white"/>
<rect x="363" y="304" width="85" height="85" fill="#0178D7"/>
<rect x="542" y="393" width="85" height="85" fill="#0178D7"/>
<rect x="363" y="393" width="40" height="40" fill="#0083FC"/>
<rect x="408" y="393" width="40" height="40" fill="#FF00B8"/>
<path d="M367.234 383.052V385H366.578V380.023H368.413C368.958 380.023 369.384 380.162 369.691 380.44C370.001 380.718 370.156 381.086 370.156 381.544C370.156 382.028 370.005 382.4 369.702 382.662C369.401 382.922 368.969 383.052 368.406 383.052H367.234ZM367.234 382.515H368.413C368.764 382.515 369.033 382.433 369.22 382.269C369.407 382.103 369.5 381.863 369.5 381.551C369.5 381.255 369.407 381.018 369.22 380.84C369.033 380.663 368.777 380.57 368.451 380.563H367.234V382.515ZM371.527 381.75C371.807 381.405 372.172 381.233 372.621 381.233C373.402 381.233 373.796 381.674 373.803 382.556V385H373.171V382.553C373.169 382.286 373.107 382.089 372.986 381.961C372.868 381.834 372.682 381.77 372.429 381.77C372.224 381.77 372.044 381.825 371.889 381.934C371.734 382.043 371.613 382.187 371.527 382.365V385H370.895V379.75H371.527V381.75ZM374.583 383.117C374.583 382.754 374.653 382.429 374.794 382.139C374.938 381.85 375.136 381.626 375.389 381.469C375.644 381.312 375.935 381.233 376.261 381.233C376.764 381.233 377.171 381.408 377.481 381.756C377.793 382.105 377.949 382.569 377.949 383.147V383.192C377.949 383.552 377.88 383.875 377.741 384.163C377.604 384.447 377.407 384.67 377.149 384.829C376.894 384.989 376.6 385.068 376.268 385.068C375.766 385.068 375.36 384.894 375.047 384.545C374.737 384.197 374.583 383.735 374.583 383.161V383.117ZM375.218 383.192C375.218 383.602 375.313 383.931 375.502 384.18C375.693 384.428 375.949 384.552 376.268 384.552C376.589 384.552 376.844 384.427 377.033 384.176C377.222 383.923 377.317 383.57 377.317 383.117C377.317 382.711 377.22 382.383 377.026 382.132C376.835 381.879 376.58 381.753 376.261 381.753C375.949 381.753 375.697 381.877 375.505 382.125C375.314 382.374 375.218 382.729 375.218 383.192ZM379.6 380.406V381.302H380.291V381.791H379.6V384.084C379.6 384.232 379.631 384.344 379.692 384.419C379.754 384.492 379.859 384.528 380.007 384.528C380.08 384.528 380.18 384.515 380.308 384.487V385C380.141 385.046 379.979 385.068 379.822 385.068C379.54 385.068 379.327 384.983 379.183 384.812C379.04 384.641 378.968 384.398 378.968 384.084V381.791H378.294V381.302H378.968V380.406H379.6ZM380.796 383.117C380.796 382.754 380.867 382.429 381.008 382.139C381.152 381.85 381.35 381.626 381.603 381.469C381.858 381.312 382.149 381.233 382.475 381.233C382.978 381.233 383.385 381.408 383.695 381.756C384.007 382.105 384.163 382.569 384.163 383.147V383.192C384.163 383.552 384.094 383.875 383.955 384.163C383.818 384.447 383.621 384.67 383.363 384.829C383.108 384.989 382.814 385.068 382.481 385.068C381.98 385.068 381.573 384.894 381.261 384.545C380.951 384.197 380.796 383.735 380.796 383.161V383.117ZM381.432 383.192C381.432 383.602 381.527 383.931 381.716 384.18C381.907 384.428 382.162 384.552 382.481 384.552C382.803 384.552 383.058 384.427 383.247 384.176C383.436 383.923 383.531 383.57 383.531 383.117C383.531 382.711 383.434 382.383 383.24 382.132C383.049 381.879 382.794 381.753 382.475 381.753C382.162 381.753 381.911 381.877 381.719 382.125C381.528 382.374 381.432 382.729 381.432 383.192ZM387.109 384.019C387.109 383.848 387.044 383.716 386.915 383.623C386.787 383.527 386.562 383.445 386.241 383.376C385.922 383.308 385.668 383.226 385.479 383.13C385.292 383.035 385.153 382.921 385.062 382.789C384.973 382.656 384.929 382.499 384.929 382.317C384.929 382.014 385.056 381.757 385.312 381.548C385.569 381.338 385.897 381.233 386.296 381.233C386.715 381.233 387.055 381.342 387.314 381.558C387.576 381.775 387.708 382.051 387.708 382.389H387.072C387.072 382.215 386.998 382.066 386.85 381.941C386.704 381.816 386.519 381.753 386.296 381.753C386.066 381.753 385.886 381.803 385.756 381.903C385.626 382.004 385.561 382.135 385.561 382.296C385.561 382.449 385.621 382.564 385.742 382.642C385.863 382.719 386.081 382.793 386.395 382.864C386.712 382.934 386.968 383.019 387.164 383.117C387.36 383.215 387.505 383.333 387.598 383.472C387.694 383.609 387.742 383.776 387.742 383.975C387.742 384.305 387.61 384.57 387.345 384.771C387.081 384.969 386.738 385.068 386.316 385.068C386.02 385.068 385.758 385.016 385.53 384.911C385.302 384.806 385.124 384.66 384.994 384.474C384.866 384.285 384.802 384.081 384.802 383.862H385.435C385.446 384.074 385.53 384.242 385.688 384.368C385.847 384.491 386.057 384.552 386.316 384.552C386.556 384.552 386.747 384.504 386.891 384.409C387.036 384.311 387.109 384.181 387.109 384.019Z" fill="white"/>
<path d="M550.238 471.421C550.177 471.947 549.982 472.354 549.654 472.641C549.328 472.926 548.894 473.068 548.352 473.068C547.764 473.068 547.292 472.858 546.937 472.436C546.583 472.014 546.407 471.451 546.407 470.744V470.266C546.407 469.803 546.489 469.396 546.653 469.045C546.819 468.694 547.054 468.426 547.357 468.239C547.66 468.05 548.011 467.955 548.41 467.955C548.938 467.955 549.362 468.103 549.681 468.399C550 468.693 550.186 469.101 550.238 469.623H549.579C549.522 469.227 549.397 468.939 549.206 468.762C549.017 468.584 548.751 468.495 548.41 468.495C547.99 468.495 547.661 468.65 547.422 468.96C547.185 469.27 547.066 469.711 547.066 470.283V470.765C547.066 471.305 547.179 471.734 547.405 472.053C547.63 472.372 547.946 472.532 548.352 472.532C548.716 472.532 548.995 472.45 549.189 472.286C549.385 472.119 549.515 471.831 549.579 471.421H550.238ZM553.321 473C553.285 472.927 553.255 472.797 553.232 472.61C552.938 472.916 552.588 473.068 552.18 473.068C551.815 473.068 551.515 472.966 551.281 472.761C551.048 472.553 550.932 472.291 550.932 471.975C550.932 471.59 551.078 471.291 551.37 471.079C551.664 470.865 552.076 470.758 552.607 470.758H553.222V470.467C553.222 470.246 553.156 470.071 553.024 469.941C552.892 469.809 552.697 469.743 552.439 469.743C552.214 469.743 552.025 469.8 551.872 469.914C551.719 470.028 551.643 470.165 551.643 470.327H551.007C551.007 470.143 551.072 469.965 551.202 469.794C551.334 469.621 551.512 469.484 551.735 469.384C551.961 469.284 552.208 469.233 552.477 469.233C552.903 469.233 553.237 469.34 553.479 469.555C553.72 469.767 553.845 470.059 553.854 470.433V472.135C553.854 472.475 553.898 472.745 553.984 472.945V473H553.321ZM552.272 472.518C552.47 472.518 552.658 472.467 552.836 472.364C553.014 472.262 553.142 472.128 553.222 471.964V471.206H552.727C551.952 471.206 551.564 471.432 551.564 471.886C551.564 472.084 551.631 472.239 551.763 472.351C551.895 472.462 552.065 472.518 552.272 472.518ZM555.44 469.302L555.458 469.712C555.729 469.393 556.094 469.233 556.555 469.233C557.072 469.233 557.424 469.432 557.611 469.828C557.734 469.65 557.893 469.507 558.089 469.397C558.288 469.288 558.521 469.233 558.79 469.233C559.601 469.233 560.014 469.663 560.027 470.522V473H559.395V470.56C559.395 470.295 559.335 470.098 559.214 469.968C559.093 469.836 558.89 469.77 558.605 469.77C558.371 469.77 558.176 469.841 558.021 469.982C557.866 470.121 557.776 470.309 557.751 470.546V473H557.115V470.577C557.115 470.039 556.852 469.77 556.326 469.77C555.911 469.77 555.627 469.947 555.475 470.3V473H554.842V469.302H555.44ZM562.519 473.068C562.018 473.068 561.61 472.904 561.295 472.576C560.981 472.246 560.824 471.805 560.824 471.253V471.137C560.824 470.77 560.893 470.443 561.032 470.156C561.174 469.867 561.369 469.641 561.62 469.479C561.873 469.315 562.146 469.233 562.44 469.233C562.921 469.233 563.295 469.392 563.562 469.708C563.828 470.025 563.961 470.479 563.961 471.069V471.332H561.456C561.465 471.697 561.571 471.992 561.774 472.217C561.979 472.441 562.239 472.552 562.553 472.552C562.777 472.552 562.966 472.507 563.121 472.416C563.276 472.324 563.411 472.204 563.527 472.053L563.914 472.354C563.604 472.83 563.139 473.068 562.519 473.068ZM562.44 469.753C562.185 469.753 561.971 469.846 561.798 470.033C561.625 470.218 561.518 470.478 561.477 470.812H563.329V470.765C563.311 470.443 563.224 470.195 563.069 470.02C562.914 469.842 562.705 469.753 562.44 469.753ZM566.484 469.869C566.388 469.853 566.285 469.845 566.173 469.845C565.758 469.845 565.477 470.022 565.329 470.375V473H564.696V469.302H565.312L565.322 469.729C565.529 469.399 565.823 469.233 566.204 469.233C566.327 469.233 566.42 469.249 566.484 469.281V469.869ZM569.215 473C569.178 472.927 569.149 472.797 569.126 472.61C568.832 472.916 568.481 473.068 568.073 473.068C567.709 473.068 567.409 472.966 567.174 472.761C566.942 472.553 566.826 472.291 566.826 471.975C566.826 471.59 566.972 471.291 567.263 471.079C567.557 470.865 567.97 470.758 568.5 470.758H569.116V470.467C569.116 470.246 569.05 470.071 568.917 469.941C568.785 469.809 568.59 469.743 568.333 469.743C568.107 469.743 567.918 469.8 567.766 469.914C567.613 470.028 567.537 470.165 567.537 470.327H566.901C566.901 470.143 566.966 469.965 567.096 469.794C567.228 469.621 567.406 469.484 567.629 469.384C567.854 469.284 568.102 469.233 568.371 469.233C568.797 469.233 569.131 469.34 569.372 469.555C569.614 469.767 569.739 470.059 569.748 470.433V472.135C569.748 472.475 569.791 472.745 569.878 472.945V473H569.215ZM568.166 472.518C568.364 472.518 568.552 472.467 568.729 472.364C568.907 472.262 569.036 472.128 569.116 471.964V471.206H568.62C567.845 471.206 567.458 471.432 567.458 471.886C567.458 472.084 567.524 472.239 567.656 472.351C567.788 472.462 567.958 472.518 568.166 472.518Z" fill="white"/>
<path d="M459.238 383.421C459.177 383.947 458.982 384.354 458.654 384.641C458.328 384.926 457.894 385.068 457.352 385.068C456.764 385.068 456.292 384.858 455.937 384.436C455.583 384.014 455.407 383.451 455.407 382.744V382.266C455.407 381.803 455.489 381.396 455.653 381.045C455.819 380.694 456.054 380.426 456.357 380.239C456.66 380.05 457.011 379.955 457.41 379.955C457.938 379.955 458.362 380.103 458.681 380.399C459 380.693 459.186 381.101 459.238 381.623H458.579C458.522 381.227 458.397 380.939 458.206 380.762C458.017 380.584 457.751 380.495 457.41 380.495C456.99 380.495 456.661 380.65 456.422 380.96C456.185 381.27 456.066 381.711 456.066 382.283V382.765C456.066 383.305 456.179 383.734 456.405 384.053C456.63 384.372 456.946 384.532 457.352 384.532C457.716 384.532 457.995 384.45 458.189 384.286C458.385 384.119 458.515 383.831 458.579 383.421H459.238ZM460.67 381.75C460.951 381.405 461.315 381.233 461.764 381.233C462.546 381.233 462.94 381.674 462.947 382.556V385H462.314V382.553C462.312 382.286 462.251 382.089 462.13 381.961C462.011 381.834 461.826 381.77 461.573 381.77C461.368 381.77 461.188 381.825 461.033 381.934C460.878 382.043 460.757 382.187 460.67 382.365V385H460.038V379.75H460.67V381.75ZM465.681 381.869C465.585 381.853 465.482 381.845 465.37 381.845C464.955 381.845 464.674 382.022 464.526 382.375V385H463.894V381.302H464.509L464.519 381.729C464.726 381.399 465.02 381.233 465.401 381.233C465.524 381.233 465.617 381.249 465.681 381.281V381.869ZM466.03 383.117C466.03 382.754 466.1 382.429 466.242 382.139C466.385 381.85 466.583 381.626 466.836 381.469C467.092 381.312 467.382 381.233 467.708 381.233C468.212 381.233 468.618 381.408 468.928 381.756C469.24 382.105 469.396 382.569 469.396 383.147V383.192C469.396 383.552 469.327 383.875 469.188 384.163C469.051 384.447 468.854 384.67 468.597 384.829C468.341 384.989 468.048 385.068 467.715 385.068C467.214 385.068 466.807 384.894 466.495 384.545C466.185 384.197 466.03 383.735 466.03 383.161V383.117ZM466.666 383.192C466.666 383.602 466.76 383.931 466.949 384.18C467.141 384.428 467.396 384.552 467.715 384.552C468.036 384.552 468.291 384.427 468.48 384.176C468.67 383.923 468.764 383.57 468.764 383.117C468.764 382.711 468.667 382.383 468.474 382.132C468.282 381.879 468.027 381.753 467.708 381.753C467.396 381.753 467.144 381.877 466.953 382.125C466.761 382.374 466.666 382.729 466.666 383.192ZM470.784 381.302L470.801 381.712C471.072 381.393 471.438 381.233 471.898 381.233C472.416 381.233 472.768 381.432 472.955 381.828C473.078 381.65 473.237 381.507 473.433 381.397C473.631 381.288 473.865 381.233 474.134 381.233C474.945 381.233 475.357 381.663 475.371 382.522V385H474.739V382.56C474.739 382.295 474.678 382.098 474.558 381.968C474.437 381.836 474.234 381.77 473.949 381.77C473.715 381.77 473.52 381.841 473.365 381.982C473.21 382.121 473.12 382.309 473.095 382.546V385H472.459V382.577C472.459 382.039 472.196 381.77 471.669 381.77C471.255 381.77 470.971 381.947 470.818 382.3V385H470.186V381.302H470.784ZM477.863 385.068C477.361 385.068 476.954 384.904 476.639 384.576C476.325 384.246 476.167 383.805 476.167 383.253V383.137C476.167 382.77 476.237 382.443 476.376 382.156C476.517 381.867 476.713 381.641 476.964 381.479C477.217 381.315 477.49 381.233 477.784 381.233C478.265 381.233 478.639 381.392 478.905 381.708C479.172 382.025 479.305 382.479 479.305 383.069V383.332H476.8C476.809 383.697 476.915 383.992 477.118 384.217C477.323 384.441 477.583 384.552 477.897 384.552C478.12 384.552 478.309 384.507 478.464 384.416C478.619 384.324 478.755 384.204 478.871 384.053L479.257 384.354C478.947 384.83 478.483 385.068 477.863 385.068ZM477.784 381.753C477.529 381.753 477.315 381.846 477.142 382.033C476.968 382.218 476.861 382.478 476.82 382.812H478.673V382.765C478.655 382.443 478.568 382.195 478.413 382.02C478.258 381.842 478.049 381.753 477.784 381.753Z" fill="white"/>
<path d="M548.095 382.522L549.394 380.023H550.139L548.423 383.144V385H547.767V383.144L546.051 380.023H546.803L548.095 382.522ZM552.713 385C552.676 384.927 552.647 384.797 552.624 384.61C552.33 384.916 551.979 385.068 551.571 385.068C551.207 385.068 550.907 384.966 550.672 384.761C550.44 384.553 550.324 384.291 550.324 383.975C550.324 383.59 550.47 383.291 550.761 383.079C551.055 382.865 551.468 382.758 551.999 382.758H552.614V382.467C552.614 382.246 552.548 382.071 552.416 381.941C552.283 381.809 552.089 381.743 551.831 381.743C551.605 381.743 551.416 381.8 551.264 381.914C551.111 382.028 551.035 382.165 551.035 382.327H550.399C550.399 382.143 550.464 381.965 550.594 381.794C550.726 381.621 550.904 381.484 551.127 381.384C551.353 381.284 551.6 381.233 551.869 381.233C552.295 381.233 552.629 381.34 552.87 381.555C553.112 381.767 553.237 382.059 553.246 382.433V384.135C553.246 384.475 553.289 384.745 553.376 384.945V385H552.713ZM551.664 384.518C551.862 384.518 552.05 384.467 552.228 384.364C552.405 384.262 552.534 384.128 552.614 383.964V383.206H552.118C551.343 383.206 550.956 383.432 550.956 383.886C550.956 384.084 551.022 384.239 551.154 384.351C551.286 384.462 551.456 384.518 551.664 384.518ZM554.835 381.302L554.856 381.767C555.139 381.411 555.508 381.233 555.963 381.233C556.745 381.233 557.139 381.674 557.146 382.556V385H556.514V382.553C556.511 382.286 556.45 382.089 556.329 381.961C556.211 381.834 556.025 381.77 555.772 381.77C555.567 381.77 555.387 381.825 555.232 381.934C555.077 382.043 554.956 382.187 554.87 382.365V385H554.237V381.302H554.835ZM557.946 383.12C557.946 382.553 558.08 382.097 558.349 381.753C558.618 381.407 558.97 381.233 559.405 381.233C559.838 381.233 560.181 381.382 560.434 381.678V379.75H561.066V385H560.485L560.455 384.604C560.202 384.913 559.85 385.068 559.398 385.068C558.97 385.068 558.62 384.893 558.349 384.542C558.08 384.191 557.946 383.733 557.946 383.168V383.12ZM558.578 383.192C558.578 383.611 558.665 383.939 558.838 384.176C559.011 384.413 559.25 384.532 559.556 384.532C559.957 384.532 560.25 384.352 560.434 383.992V382.293C560.245 381.944 559.954 381.77 559.562 381.77C559.253 381.77 559.011 381.89 558.838 382.129C558.665 382.368 558.578 382.722 558.578 383.192ZM563.585 385.068C563.084 385.068 562.676 384.904 562.362 384.576C562.047 384.246 561.89 383.805 561.89 383.253V383.137C561.89 382.77 561.96 382.443 562.099 382.156C562.24 381.867 562.436 381.641 562.687 381.479C562.939 381.315 563.213 381.233 563.507 381.233C563.988 381.233 564.361 381.392 564.628 381.708C564.895 382.025 565.028 382.479 565.028 383.069V383.332H562.522C562.532 383.697 562.638 383.992 562.84 384.217C563.045 384.441 563.305 384.552 563.62 384.552C563.843 384.552 564.032 384.507 564.187 384.416C564.342 384.324 564.478 384.204 564.594 384.053L564.98 384.354C564.67 384.83 564.205 385.068 563.585 385.068ZM563.507 381.753C563.252 381.753 563.037 381.846 562.864 382.033C562.691 382.218 562.584 382.478 562.543 382.812H564.396V382.765C564.377 382.443 564.291 382.195 564.136 382.02C563.981 381.842 563.771 381.753 563.507 381.753ZM567.003 382.652L567.824 381.302H568.562L567.352 383.13L568.6 385H567.868L567.014 383.616L566.159 385H565.424L566.672 383.13L565.462 381.302H566.193L567.003 382.652ZM571.071 385V380.023H572.476C572.909 380.023 573.291 380.119 573.624 380.311C573.957 380.502 574.213 380.774 574.393 381.127C574.575 381.481 574.668 381.886 574.67 382.344V382.662C574.67 383.132 574.579 383.543 574.396 383.896C574.216 384.249 573.958 384.52 573.621 384.709C573.286 384.899 572.895 384.995 572.448 385H571.071ZM571.727 380.563V384.463H572.417C572.923 384.463 573.316 384.306 573.597 383.992C573.879 383.677 574.021 383.229 574.021 382.648V382.358C574.021 381.793 573.887 381.354 573.621 381.042C573.356 380.728 572.98 380.568 572.493 380.563H571.727ZM576.252 385H575.62V381.302H576.252V385ZM575.569 380.321C575.569 380.218 575.6 380.132 575.661 380.061C575.725 379.99 575.818 379.955 575.941 379.955C576.064 379.955 576.158 379.99 576.222 380.061C576.285 380.132 576.317 380.218 576.317 380.321C576.317 380.423 576.285 380.509 576.222 380.577C576.158 380.646 576.064 380.68 575.941 380.68C575.818 380.68 575.725 380.646 575.661 380.577C575.6 380.509 575.569 380.423 575.569 380.321ZM579.421 384.019C579.421 383.848 579.356 383.716 579.226 383.623C579.098 383.527 578.874 383.445 578.553 383.376C578.234 383.308 577.98 383.226 577.791 383.13C577.604 383.035 577.465 382.921 577.374 382.789C577.285 382.656 577.24 382.499 577.24 382.317C577.24 382.014 577.368 381.757 577.623 381.548C577.881 381.338 578.209 381.233 578.607 381.233C579.027 381.233 579.366 381.342 579.626 381.558C579.888 381.775 580.019 382.051 580.019 382.389H579.383C579.383 382.215 579.309 382.066 579.161 381.941C579.015 381.816 578.831 381.753 578.607 381.753C578.377 381.753 578.197 381.803 578.067 381.903C577.938 382.004 577.873 382.135 577.873 382.296C577.873 382.449 577.933 382.564 578.054 382.642C578.174 382.719 578.392 382.793 578.707 382.864C579.023 382.934 579.28 383.019 579.476 383.117C579.672 383.215 579.816 383.333 579.91 383.472C580.005 383.609 580.053 383.776 580.053 383.975C580.053 384.305 579.921 384.57 579.657 384.771C579.392 384.969 579.049 385.068 578.628 385.068C578.332 385.068 578.07 385.016 577.842 384.911C577.614 384.806 577.435 384.66 577.305 384.474C577.178 384.285 577.114 384.081 577.114 383.862H577.746C577.757 384.074 577.842 384.242 577.999 384.368C578.159 384.491 578.368 384.552 578.628 384.552C578.867 384.552 579.059 384.504 579.202 384.409C579.348 384.311 579.421 384.181 579.421 384.019ZM581.909 383.288L581.513 383.701V385H580.88V379.75H581.513V382.925L581.851 382.519L583.003 381.302H583.772L582.333 382.847L583.939 385H583.198L581.909 383.288Z" fill="white"/>
<path fill-rule="evenodd" clip-rule="evenodd" d="M391.296 157.592H418.704V185H391.296V157.592ZM397.066 164.083H404.447V171.464H397.066V164.083ZM412.934 164.083H405.554V171.464H412.934V164.083ZM397.066 172.571H404.447V179.951H397.066V172.571ZM412.934 172.571H405.554V179.951H412.934V172.571Z" fill="white"/>
<path fill-rule="evenodd" clip-rule="evenodd" d="M412.113 158.794C411.541 155.382 408.574 152.783 405 152.783C401.426 152.783 398.459 155.382 397.887 158.794H395.942C396.531 154.316 400.362 150.86 405 150.86C409.638 150.86 413.469 154.316 414.058 158.794H412.113Z" fill="white"/>
<path d="M575.35 155.8C575.333 155.812 575.32 155.827 575.305 155.839C575.398 155.741 575.533 155.634 575.622 155.576C578.204 153.898 581.189 153 584.5 153C587.597 153 590.498 153.855 592.974 155.343C593.154 155.449 593.644 155.785 593.897 156.091V156.092C591.507 153.458 584.485 159.11 584.485 159.11C582.056 157.237 579.822 155.961 578.158 155.507C576.768 155.126 575.806 155.444 575.35 155.8ZM596.602 158.29C596.529 158.209 596.45 158.134 596.377 158.05C595.773 157.387 595.03 157.227 594.361 157.271C593.752 157.462 590.937 158.476 587.468 161.751C587.468 161.751 591.373 165.549 593.764 169.431C596.154 173.313 597.582 176.364 596.704 180.598C599.37 177.668 600.996 173.774 600.996 169.499C600.996 165.172 599.33 161.233 596.602 158.29ZM590.642 171.089C589.582 169.9 588.006 168.197 585.925 166.127C585.47 165.674 584.989 165.203 584.483 164.714C584.483 164.714 583.723 165.474 582.733 166.475V166.473C581.466 167.753 579.823 169.423 578.911 170.398C577.288 172.13 572.636 177.572 572.374 180.623C572.374 180.623 571.339 178.203 573.611 172.621C575.095 168.973 579.578 163.494 581.45 161.709C581.45 161.709 579.74 159.826 577.593 158.526L577.58 158.522C577.58 158.522 577.556 158.503 577.517 158.479C576.485 157.863 575.357 157.389 574.272 157.326C573.164 157.404 572.463 158.214 572.463 158.214C569.694 161.167 568 165.135 568 169.5C568 178.612 575.387 186 584.5 186C589.336 186 593.687 183.915 596.706 180.6C596.705 180.594 596.359 178.419 594.139 175.299C593.617 174.568 591.71 172.287 590.642 171.089Z" fill="white"/>
<path d="M507.395 443.356L503.225 439.176C502.394 438.347 501.019 438.372 500.16 439.234L498.059 441.339C497.926 441.266 497.789 441.189 497.644 441.108C496.318 440.371 494.502 439.361 492.591 437.445C490.675 435.525 489.667 433.702 488.93 432.372C488.852 432.231 488.777 432.095 488.704 431.966L490.113 430.555L490.807 429.859C491.667 428.996 491.691 427.618 490.863 426.787L486.693 422.606C485.864 421.776 484.488 421.801 483.627 422.664L482.452 423.849L482.484 423.881C482.09 424.385 481.761 424.966 481.516 425.593C481.29 426.189 481.15 426.759 481.085 427.329C480.535 431.904 482.62 436.085 488.281 441.759C496.106 449.601 502.412 449.008 502.684 448.979C503.276 448.908 503.844 448.766 504.421 448.542C505.041 448.299 505.62 447.97 506.123 447.575L506.149 447.598L507.339 446.43C508.198 445.567 508.223 444.189 507.395 443.356Z" fill="white"/>
<path d="M485.94 170.803L490.045 181.064L495.388 175.72L504.549 183.002L511 153.998L478 167.744L485.94 170.803ZM501.57 162.32L491.469 171.533L490.211 176.274L487.887 170.463L501.57 162.32Z" fill="white"/>
<path d="M460.016 202.563H458.417V207H457.764V202.563H456.167V202.023H460.016V202.563ZM461.848 207.068C461.347 207.068 460.939 206.904 460.625 206.576C460.31 206.246 460.153 205.805 460.153 205.253V205.137C460.153 204.77 460.222 204.443 460.361 204.156C460.503 203.867 460.699 203.641 460.949 203.479C461.202 203.315 461.476 203.233 461.77 203.233C462.25 203.233 462.624 203.392 462.891 203.708C463.157 204.025 463.291 204.479 463.291 205.069V205.332H460.785C460.794 205.697 460.9 205.992 461.103 206.217C461.308 206.441 461.568 206.552 461.882 206.552C462.106 206.552 462.295 206.507 462.45 206.416C462.605 206.324 462.74 206.204 462.856 206.053L463.243 206.354C462.933 206.83 462.468 207.068 461.848 207.068ZM461.77 203.753C461.514 203.753 461.3 203.846 461.127 204.033C460.954 204.218 460.847 204.478 460.806 204.812H462.658V204.765C462.64 204.443 462.553 204.195 462.398 204.02C462.243 203.842 462.034 203.753 461.77 203.753ZM464.712 207H464.08V201.75H464.712V207ZM467.262 207.068C466.761 207.068 466.353 206.904 466.039 206.576C465.724 206.246 465.567 205.805 465.567 205.253V205.137C465.567 204.77 465.636 204.443 465.775 204.156C465.917 203.867 466.113 203.641 466.363 203.479C466.616 203.315 466.89 203.233 467.184 203.233C467.664 203.233 468.038 203.392 468.305 203.708C468.571 204.025 468.705 204.479 468.705 205.069V205.332H466.199C466.208 205.697 466.314 205.992 466.517 206.217C466.722 206.441 466.982 206.552 467.296 206.552C467.52 206.552 467.709 206.507 467.864 206.416C468.019 206.324 468.154 206.204 468.271 206.053L468.657 206.354C468.347 206.83 467.882 207.068 467.262 207.068ZM467.184 203.753C466.928 203.753 466.714 203.846 466.541 204.033C466.368 204.218 466.261 204.478 466.22 204.812H468.072V204.765C468.054 204.443 467.967 204.195 467.812 204.02C467.658 203.842 467.448 203.753 467.184 203.753ZM469.289 205.12C469.289 204.544 469.422 204.086 469.689 203.746C469.956 203.404 470.309 203.233 470.749 203.233C471.2 203.233 471.552 203.393 471.805 203.712L471.835 203.302H472.413V206.911C472.413 207.39 472.271 207.767 471.986 208.042C471.703 208.318 471.323 208.456 470.844 208.456C470.578 208.456 470.317 208.399 470.062 208.285C469.806 208.171 469.611 208.015 469.477 207.817L469.805 207.438C470.076 207.772 470.408 207.94 470.8 207.94C471.107 207.94 471.347 207.853 471.518 207.68C471.691 207.507 471.777 207.263 471.777 206.949V206.631C471.524 206.923 471.179 207.068 470.742 207.068C470.309 207.068 469.958 206.894 469.689 206.545C469.422 206.197 469.289 205.722 469.289 205.12ZM469.925 205.192C469.925 205.609 470.01 205.937 470.181 206.176C470.352 206.413 470.591 206.532 470.899 206.532C471.298 206.532 471.59 206.351 471.777 205.988V204.3C471.584 203.947 471.293 203.77 470.906 203.77C470.598 203.77 470.358 203.89 470.185 204.129C470.011 204.368 469.925 204.722 469.925 205.192ZM475.158 203.869C475.062 203.853 474.958 203.845 474.847 203.845C474.432 203.845 474.151 204.022 474.002 204.375V207H473.37V203.302H473.985L473.996 203.729C474.203 203.399 474.497 203.233 474.877 203.233C475 203.233 475.094 203.249 475.158 203.281V203.869ZM477.889 207C477.852 206.927 477.823 206.797 477.8 206.61C477.506 206.916 477.155 207.068 476.747 207.068C476.382 207.068 476.083 206.966 475.848 206.761C475.616 206.553 475.5 206.291 475.5 205.975C475.5 205.59 475.645 205.291 475.937 205.079C476.231 204.865 476.643 204.758 477.174 204.758H477.79V204.467C477.79 204.246 477.723 204.071 477.591 203.941C477.459 203.809 477.264 203.743 477.007 203.743C476.781 203.743 476.592 203.8 476.439 203.914C476.287 204.028 476.21 204.165 476.21 204.327H475.575C475.575 204.143 475.64 203.965 475.77 203.794C475.902 203.621 476.079 203.484 476.303 203.384C476.528 203.284 476.776 203.233 477.044 203.233C477.471 203.233 477.804 203.34 478.046 203.555C478.287 203.767 478.413 204.059 478.422 204.433V206.135C478.422 206.475 478.465 206.745 478.552 206.945V207H477.889ZM476.839 206.518C477.038 206.518 477.226 206.467 477.403 206.364C477.581 206.262 477.71 206.128 477.79 205.964V205.206H477.294C476.519 205.206 476.132 205.432 476.132 205.886C476.132 206.084 476.198 206.239 476.33 206.351C476.462 206.462 476.632 206.518 476.839 206.518ZM480.008 203.302L480.025 203.712C480.296 203.393 480.662 203.233 481.122 203.233C481.639 203.233 481.991 203.432 482.178 203.828C482.301 203.65 482.461 203.507 482.657 203.397C482.855 203.288 483.089 203.233 483.357 203.233C484.169 203.233 484.581 203.663 484.595 204.522V207H483.962V204.56C483.962 204.295 483.902 204.098 483.781 203.968C483.66 203.836 483.458 203.77 483.173 203.77C482.938 203.77 482.743 203.841 482.588 203.982C482.433 204.121 482.343 204.309 482.318 204.546V207H481.683V204.577C481.683 204.039 481.419 203.77 480.893 203.77C480.478 203.77 480.195 203.947 480.042 204.3V207H479.41V203.302H480.008Z" fill="white"/>
<path d="M397.615 345.854C399.505 345.854 401.043 344.317 401.043 342.428C401.043 340.537 399.505 339 397.615 339C395.726 339 394.188 340.537 394.188 342.427C394.188 344.317 395.726 345.854 397.615 345.854ZM397.615 340.231C398.827 340.231 399.812 341.217 399.812 342.427C399.812 343.638 398.827 344.623 397.615 344.623C396.404 344.623 395.419 343.638 395.419 342.428C395.419 341.217 396.404 340.231 397.615 340.231Z" fill="white"/>
<path d="M389.615 331V355.615V363H420.385V355.615V331H389.615ZM390.846 332.231H419.154V348.678L412.801 342.854C412.68 342.744 412.521 342.689 412.358 342.693C412.194 342.7 412.041 342.772 411.93 342.893L405.903 349.494L402.985 346.575C402.754 346.346 402.386 346.334 402.143 346.548L391.844 355.615H390.846V332.231ZM419.154 361.769H390.846V356.846H419.154V361.769ZM393.707 355.615L402.522 347.855L408.862 354.194C409.102 354.434 409.491 354.434 409.732 354.194C409.972 353.953 409.972 353.564 409.732 353.324L406.774 350.366L412.423 344.178L419.154 350.348V355.615H393.707Z" fill="white"/>
<path d="M402.5 347L393 355.5V356.5H419.5V349.5L412.5 343.5L406 350.5L402.5 347Z" fill="white"/>
<circle cx="397.5" cy="342.5" r="2.5" fill="white"/>
<path d="M487.323 347.392L482.601 339.212C485.625 335.426 490.279 333 495.5 333C501.54 333 506.822 336.247 509.697 341.089H496.234C495.992 341.069 495.747 341.057 495.5 341.057C491.572 341.057 488.263 343.753 487.323 347.392ZM501.407 343.474H510.865C511.597 345.341 512 347.374 512 349.501C512 358.552 504.713 365.899 495.687 366L502.435 354.311C503.385 352.945 503.943 351.287 503.943 349.501C503.943 347.143 502.971 345.008 501.407 343.474ZM489.506 349.501C489.506 346.196 492.195 343.507 495.5 343.507C498.805 343.507 501.494 346.196 501.494 349.501C501.494 352.807 498.805 355.496 495.5 355.496C492.195 355.496 489.506 352.807 489.506 349.501ZM497.762 357.637L493.038 365.819C485.093 364.631 479 357.778 479 349.501C479 346.561 479.77 343.802 481.117 341.411L487.853 353.08C489.203 355.951 492.123 357.945 495.5 357.945C496.283 357.945 497.042 357.838 497.762 357.637Z" fill="white"/>
<g clip-path="url(#clip0)">
<path d="M595.73 253.23L599 256.5V253.23H595.73Z" fill="white"/>
<path d="M590.697 253.23H586.433L591.843 258.641H586.81L581.399 253.23H576.868L582.278 258.641H577.245L572.572 253.968C572.516 254.105 572.485 254.254 572.485 254.411V269.104C572.485 269.923 573.149 270.587 573.968 270.587H597.517C598.336 270.587 599 269.923 599 269.104V258.641H596.108L590.697 253.23Z" fill="white"/>
<path d="M594.539 244.413L590.054 245.063L585.475 251.193L589.96 250.544L594.539 244.413Z" fill="white"/>
<path d="M585.073 245.784L580.853 246.396L576.273 252.527L580.494 251.915L585.073 245.784Z" fill="white"/>
<path d="M598.69 248.086L598.292 245.336L594.941 249.822L597.691 249.424C598.336 249.33 598.784 248.731 598.69 248.086Z" fill="white"/>
<path d="M575.871 247.118L573.012 247.532C572.366 247.625 571.919 248.224 572.012 248.87L572.376 251.379L572.427 251.729L573.61 250.145L575.871 247.118Z" fill="white"/>
</g>
<path d="M570.485 356.283C570.922 356.952 571.737 357.656 573.239 358.146C574.613 358.595 576.424 358.816 578.497 358.79L596.315 354.016C598.124 353.002 599.582 351.905 600.548 350.829C601.603 349.653 601.956 348.636 602 347.838L570.485 356.283Z" fill="white"/>
<path d="M592.082 341.613C591.026 340.179 589.58 339.101 587.899 338.494C586.175 337.872 584.324 337.794 582.548 338.27C580.771 338.746 579.207 339.739 578.024 341.14C576.872 342.506 576.159 344.162 575.962 345.932L575.913 346.301L592.308 341.908L592.082 341.613Z" fill="white"/>
<path d="M598.762 344.163C597.397 343.717 595.601 343.496 593.544 343.518L575.649 348.313C573.856 349.322 572.411 350.412 571.452 351.48C570.397 352.656 570.043 353.673 570 354.471L601.515 346.027C601.078 345.358 600.264 344.653 598.762 344.163Z" fill="white"/>
<path d="M579.889 360.359L581.377 362.038L595.445 358.268L595.895 356.071L579.889 360.359Z" fill="white"/>
<path d="M388.51 401.005L385.392 401C381.889 401 379.625 403.318 379.625 406.906V409.63H376.49C376.219 409.63 376 409.849 376 410.119V414.065C376 414.335 376.22 414.554 376.49 414.554H379.625V424.511C379.625 424.781 379.845 425 380.116 425H384.206C384.477 425 384.696 424.781 384.696 424.511V414.554H388.362C388.633 414.554 388.852 414.335 388.852 414.065L388.854 410.119C388.854 409.989 388.802 409.865 388.71 409.773C388.619 409.681 388.493 409.63 388.363 409.63H384.696V407.321C384.696 406.212 384.961 405.648 386.409 405.648L388.51 405.648C388.781 405.648 389 405.428 389 405.158V401.494C389 401.224 388.781 401.005 388.51 401.005Z" fill="white"/>
<path d="M433.503 400H422.497C418.914 400 416 402.914 416 406.497V417.504C416 421.086 418.914 424 422.497 424H433.504C437.086 424 440 421.086 440 417.504V406.497C440 402.914 437.086 400 433.503 400V400ZM428 418.562C424.381 418.562 421.438 415.619 421.438 412C421.438 408.381 424.381 405.438 428 405.438C431.619 405.438 434.562 408.381 434.562 412C434.562 415.619 431.619 418.562 428 418.562ZM434.719 406.985C433.65 406.985 432.78 406.116 432.78 405.046C432.78 403.977 433.65 403.107 434.719 403.107C435.789 403.107 436.659 403.977 436.659 405.046C436.659 406.116 435.789 406.985 434.719 406.985Z" fill="white"/>
<path d="M428 406.845C425.157 406.845 422.845 409.157 422.845 412C422.845 414.843 425.157 417.155 428 417.155C430.843 417.155 433.155 414.843 433.155 412C433.155 409.157 430.843 406.845 428 406.845Z" fill="white"/>
<path d="M434.719 404.514C434.426 404.514 434.187 404.753 434.187 405.046C434.187 405.34 434.426 405.578 434.719 405.578C435.013 405.578 435.252 405.34 435.252 405.046C435.252 404.753 435.013 404.514 434.719 404.514Z" fill="white"/>
<g clip-path="url(#clip1)">
<path d="M584 431.8C581.349 431.8 579.2 433.95 579.2 436.6C579.2 439.251 581.349 441.4 584 441.4C586.651 441.4 588.8 439.251 588.8 436.6C588.8 433.95 586.651 431.8 584 431.8ZM596.8 427H592.96C592.432 427 591.863 426.59 591.696 426.089L590.704 423.11C590.536 422.61 589.968 422.2 589.44 422.2H578.56C578.032 422.2 577.463 422.61 577.296 423.111L576.304 426.09C576.136 426.59 575.568 427 575.04 427H571.2C569.44 427 568 428.44 568 430.2V444.6C568 446.36 569.44 447.8 571.2 447.8H596.8C598.56 447.8 600 446.36 600 444.6V430.2C600 428.44 598.56 427 596.8 427ZM584 444.6C579.582 444.6 576 441.018 576 436.6C576 432.182 579.582 428.6 584 428.6C588.418 428.6 592 432.182 592 436.6C592 441.018 588.418 444.6 584 444.6ZM595.68 432.438C595.062 432.438 594.56 431.937 594.56 431.318C594.56 430.7 595.062 430.198 595.68 430.198C596.299 430.198 596.8 430.7 596.8 431.318C596.8 431.937 596.299 432.438 595.68 432.438Z" fill="white"/>
</g>
<path d="M450.5 240C440.835 240 433 247.835 433 257.5C433 267.165 440.835 275 450.5 275C460.165 275 468 267.165 468 257.5C468 247.835 460.165 240 450.5 240ZM458.116 265.397C457.894 265.778 457.493 265.99 457.082 265.99C456.877 265.99 456.669 265.938 456.479 265.827C453.334 263.989 449.701 263.693 447.207 263.769C444.444 263.853 442.417 264.399 442.397 264.404C441.76 264.578 441.102 264.204 440.927 263.567C440.753 262.93 441.126 262.272 441.763 262.097C441.854 262.072 444.035 261.479 447.067 261.379C448.853 261.32 450.573 261.445 452.177 261.749C454.209 262.135 456.063 262.811 457.687 263.76C458.257 264.094 458.45 264.827 458.116 265.397ZM460.341 260.777C460.078 261.228 459.603 261.479 459.116 261.479C458.873 261.479 458.627 261.417 458.402 261.285C454.677 259.108 450.373 258.758 447.419 258.848C444.146 258.948 441.745 259.594 441.721 259.601C440.967 259.806 440.187 259.363 439.98 258.608C439.773 257.854 440.216 257.075 440.97 256.867C441.078 256.837 443.661 256.136 447.253 256.017C449.369 255.947 451.406 256.095 453.306 256.455C455.713 256.912 457.909 257.713 459.832 258.838C460.508 259.233 460.736 260.101 460.341 260.777ZM461.709 256.575C461.411 256.575 461.109 256.499 460.833 256.337C451.977 251.162 440.489 254.239 440.374 254.27C439.448 254.526 438.491 253.982 438.236 253.056C437.981 252.13 438.525 251.173 439.451 250.918C439.583 250.881 442.752 250.021 447.157 249.875C449.753 249.79 452.251 249.971 454.582 250.413C457.535 250.973 460.228 251.956 462.588 253.335C463.417 253.82 463.696 254.884 463.211 255.713C462.888 256.267 462.306 256.575 461.709 256.575Z" fill="white"/>
<line x1="608" y1="491.391" x2="625" y2="491.391" stroke="#CDCDCD" stroke-width="1.21875"/>
<line y1="-0.609375" x2="9.78378" y2="-0.609375" transform="matrix(-0.707107 -0.707107 -0.707107 0.707107 625.188 491.918)" stroke="#CDCDCD" stroke-width="1.21875"/>
<line y1="-0.609375" x2="9.78378" y2="-0.609375" transform="matrix(-0.707107 0.707107 0.707107 0.707107 626 491.5)" stroke="#CDCDCD" stroke-width="1.21875"/>
<path d="M567.963 492.959H564.687L563.951 495H562.888L565.874 487.18H566.776L569.768 495H568.71L567.963 492.959ZM564.999 492.11H567.657L566.325 488.453L564.999 492.11ZM571.745 495H570.751V486.75H571.745V495ZM574.419 495H573.426V486.75H574.419V495ZM582.331 495C582.274 494.885 582.227 494.681 582.191 494.388C581.729 494.868 581.178 495.107 580.537 495.107C579.964 495.107 579.493 494.946 579.125 494.624C578.759 494.298 578.577 493.886 578.577 493.389C578.577 492.784 578.806 492.314 579.264 491.981C579.726 491.645 580.374 491.477 581.208 491.477H582.175V491.02C582.175 490.673 582.071 490.397 581.864 490.193C581.656 489.985 581.35 489.881 580.945 489.881C580.591 489.881 580.294 489.971 580.054 490.15C579.814 490.329 579.694 490.546 579.694 490.8H578.695C578.695 490.51 578.797 490.23 579.001 489.962C579.209 489.69 579.488 489.475 579.839 489.317C580.193 489.16 580.582 489.081 581.004 489.081C581.674 489.081 582.199 489.249 582.578 489.586C582.958 489.919 583.155 490.379 583.169 490.966V493.641C583.169 494.175 583.237 494.599 583.373 494.914V495H582.331ZM580.682 494.243C580.994 494.243 581.289 494.162 581.568 494.001C581.848 493.84 582.05 493.63 582.175 493.373V492.18H581.396C580.179 492.18 579.57 492.536 579.57 493.249C579.57 493.561 579.674 493.804 579.882 493.979C580.09 494.155 580.356 494.243 580.682 494.243ZM589.636 492.159C589.636 493.043 589.433 493.756 589.029 494.296C588.624 494.837 588.076 495.107 587.385 495.107C586.68 495.107 586.125 494.884 585.72 494.436V497.234H584.727V489.188H585.634L585.683 489.833C586.087 489.332 586.649 489.081 587.369 489.081C588.067 489.081 588.619 489.344 589.023 489.871C589.432 490.397 589.636 491.129 589.636 492.067V492.159ZM588.642 492.046C588.642 491.391 588.502 490.873 588.223 490.494C587.944 490.114 587.561 489.924 587.074 489.924C586.472 489.924 586.021 490.191 585.72 490.725V493.501C586.017 494.031 586.472 494.296 587.084 494.296C587.561 494.296 587.938 494.108 588.218 493.732C588.501 493.353 588.642 492.791 588.642 492.046ZM595.812 492.159C595.812 493.043 595.61 493.756 595.206 494.296C594.801 494.837 594.253 495.107 593.562 495.107C592.857 495.107 592.302 494.884 591.897 494.436V497.234H590.903V489.188H591.811L591.859 489.833C592.264 489.332 592.826 489.081 593.546 489.081C594.244 489.081 594.796 489.344 595.2 489.871C595.608 490.397 595.812 491.129 595.812 492.067V492.159ZM594.819 492.046C594.819 491.391 594.679 490.873 594.4 490.494C594.121 490.114 593.737 489.924 593.25 489.924C592.649 489.924 592.198 490.191 591.897 490.725V493.501C592.194 494.031 592.649 494.296 593.261 494.296C593.737 494.296 594.115 494.108 594.395 493.732C594.677 493.353 594.819 492.791 594.819 492.046ZM600.464 493.458C600.464 493.19 600.362 492.982 600.158 492.835C599.957 492.685 599.604 492.556 599.1 492.449C598.598 492.341 598.199 492.212 597.902 492.062C597.608 491.912 597.39 491.733 597.247 491.525C597.107 491.317 597.037 491.07 597.037 490.784C597.037 490.307 597.238 489.905 597.639 489.575C598.043 489.246 598.559 489.081 599.186 489.081C599.844 489.081 600.378 489.251 600.786 489.591C601.198 489.931 601.404 490.367 601.404 490.896H600.405C600.405 490.624 600.288 490.39 600.056 490.193C599.826 489.996 599.536 489.897 599.186 489.897C598.824 489.897 598.541 489.976 598.337 490.134C598.133 490.291 598.031 490.497 598.031 490.751C598.031 490.991 598.126 491.172 598.315 491.294C598.505 491.416 598.847 491.532 599.341 491.643C599.839 491.754 600.242 491.887 600.55 492.041C600.858 492.194 601.085 492.381 601.232 492.599C601.382 492.814 601.458 493.077 601.458 493.389C601.458 493.908 601.25 494.325 600.834 494.64C600.419 494.952 599.88 495.107 599.218 495.107C598.752 495.107 598.34 495.025 597.982 494.86C597.624 494.696 597.343 494.466 597.139 494.173C596.939 493.876 596.838 493.555 596.838 493.211H597.832C597.85 493.544 597.982 493.809 598.229 494.006C598.48 494.2 598.81 494.296 599.218 494.296C599.594 494.296 599.895 494.221 600.12 494.071C600.349 493.917 600.464 493.713 600.464 493.458Z" fill="white"/>
<defs>
<filter id="filter0_di" x="0" y="0" width="285" height="573" filterUnits="userSpaceOnUse" color-interpolation-filters="sRGB">
<feFlood flood-opacity="0" result="BackgroundImageFix"/>
<feColorMatrix in="SourceAlpha" type="matrix" values="0 0 0 0 0 0 0 0 0 0 0 0 0 0 0 0 0 0 127 0"/>
<feOffset dx="1" dy="1"/>
<feGaussianBlur stdDeviation="1.5"/>
<feColorMatrix type="matrix" values="0 0 0 0 0 0 0 0 0 0 0 0 0 0 0 0 0 0 0.7 0"/>
<feBlend mode="normal" in2="BackgroundImageFix" result="effect1_dropShadow"/>
<feBlend mode="normal" in="SourceGraphic" in2="effect1_dropShadow" result="shape"/>
<feColorMatrix in="SourceAlpha" type="matrix" values="0 0 0 0 0 0 0 0 0 0 0 0 0 0 0 0 0 0 127 0" result="hardAlpha"/>
<feOffset dx="2" dy="2"/>
<feGaussianBlur stdDeviation="2.5"/>
<feComposite in2="hardAlpha" operator="arithmetic" k2="-1" k3="1"/>
<feColorMatrix type="matrix" values="0 0 0 0 1 0 0 0 0 1 0 0 0 0 1 0 0 0 0.49 0"/>
<feBlend mode="normal" in2="shape" result="effect2_innerShadow"/>
</filter>
<filter id="filter1_i" x="20" y="20" width="43" height="44" filterUnits="userSpaceOnUse" color-interpolation-filters="sRGB">
<feFlood flood-opacity="0" result="BackgroundImageFix"/>
<feBlend mode="normal" in="SourceGraphic" in2="BackgroundImageFix" result="shape"/>
<feColorMatrix in="SourceAlpha" type="matrix" values="0 0 0 0 0 0 0 0 0 0 0 0 0 0 0 0 0 0 127 0" result="hardAlpha"/>
<feOffset dy="1"/>
<feGaussianBlur stdDeviation="2"/>
<feComposite in2="hardAlpha" operator="arithmetic" k2="-1" k3="1"/>
<feColorMatrix type="matrix" values="0 0 0 0 0 0 0 0 0 0 0 0 0 0 0 0 0 0 1 0"/>
<feBlend mode="normal" in2="shape" result="effect1_innerShadow"/>
</filter>
<filter id="filter2_i" x="22" y="22" width="39" height="40" filterUnits="userSpaceOnUse" color-interpolation-filters="sRGB">
<feFlood flood-opacity="0" result="BackgroundImageFix"/>
<feBlend mode="normal" in="SourceGraphic" in2="BackgroundImageFix" result="shape"/>
<feColorMatrix in="SourceAlpha" type="matrix" values="0 0 0 0 0 0 0 0 0 0 0 0 0 0 0 0 0 0 127 0" result="hardAlpha"/>
<feOffset dy="1"/>
<feGaussianBlur stdDeviation="2"/>
<feComposite in2="hardAlpha" operator="arithmetic" k2="-1" k3="1"/>
<feColorMatrix type="matrix" values="0 0 0 0 0 0 0 0 0 0 0 0 0 0 0 0 0 0 1 0"/>
<feBlend mode="normal" in2="shape" result="effect1_innerShadow"/>
</filter>
<filter id="filter3_di" x="21" y="22" width="41" height="41" filterUnits="userSpaceOnUse" color-interpolation-filters="sRGB">
<feFlood flood-opacity="0" result="BackgroundImageFix"/>
<feColorMatrix in="SourceAlpha" type="matrix" values="0 0 0 0 0 0 0 0 0 0 0 0 0 0 0 0 0 0 127 0"/>
<feOffset dy="1"/>
<feGaussianBlur stdDeviation="2"/>
<feColorMatrix type="matrix" values="0 0 0 0 0 0 0 0 0 0 0 0 0 0 0 0 0 0 1 0"/>
<feBlend mode="normal" in2="BackgroundImageFix" result="effect1_dropShadow"/>
<feBlend mode="normal" in="SourceGraphic" in2="effect1_dropShadow" result="shape"/>
<feColorMatrix in="SourceAlpha" type="matrix" values="0 0 0 0 0 0 0 0 0 0 0 0 0 0 0 0 0 0 127 0" result="hardAlpha"/>
<feOffset dy="4"/>
<feGaussianBlur stdDeviation="9.5"/>
<feComposite in2="hardAlpha" operator="arithmetic" k2="-1" k3="1"/>
<feColorMatrix type="matrix" values="0 0 0 0 0.0125 0 0 0 0 0.0125 0 0 0 0 0.0125 0 0 0 1 0"/>
<feBlend mode="normal" in2="shape" result="effect2_innerShadow"/>
</filter>
<filter id="filter4_i" x="27" y="79" width="30" height="31" filterUnits="userSpaceOnUse" color-interpolation-filters="sRGB">
<feFlood flood-opacity="0" result="BackgroundImageFix"/>
<feBlend mode="normal" in="SourceGraphic" in2="BackgroundImageFix" result="shape"/>
<feColorMatrix in="SourceAlpha" type="matrix" values="0 0 0 0 0 0 0 0 0 0 0 0 0 0 0 0 0 0 127 0" result="hardAlpha"/>
<feOffset dy="1"/>
<feGaussianBlur stdDeviation="2"/>
<feComposite in2="hardAlpha" operator="arithmetic" k2="-1" k3="1"/>
<feColorMatrix type="matrix" values="0 0 0 0 0 0 0 0 0 0 0 0 0 0 0 0 0 0 1 0"/>
<feBlend mode="normal" in2="shape" result="effect1_innerShadow"/>
</filter>
<filter id="filter5_i" x="37" y="66" width="10" height="12" filterUnits="userSpaceOnUse" color-interpolation-filters="sRGB">
<feFlood flood-opacity="0" result="BackgroundImageFix"/>
<feBlend mode="normal" in="SourceGraphic" in2="BackgroundImageFix" result="shape"/>
<feColorMatrix in="SourceAlpha" type="matrix" values="0 0 0 0 0 0 0 0 0 0 0 0 0 0 0 0 0 0 127 0" result="hardAlpha"/>
<feOffset dy="2"/>
<feGaussianBlur stdDeviation="1"/>
<feComposite in2="hardAlpha" operator="arithmetic" k2="-1" k3="1"/>
<feColorMatrix type="matrix" values="0 0 0 0 0 0 0 0 0 0 0 0 0 0 0 0 0 0 0.86 0"/>
<feBlend mode="normal" in2="shape" result="effect1_innerShadow"/>
</filter>
<filter id="filter6_di" x="26" y="79" width="32" height="32" filterUnits="userSpaceOnUse" color-interpolation-filters="sRGB">
<feFlood flood-opacity="0" result="BackgroundImageFix"/>
<feColorMatrix in="SourceAlpha" type="matrix" values="0 0 0 0 0 0 0 0 0 0 0 0 0 0 0 0 0 0 127 0"/>
<feOffset dy="1"/>
<feGaussianBlur stdDeviation="2"/>
<feColorMatrix type="matrix" values="0 0 0 0 0 0 0 0 0 0 0 0 0 0 0 0 0 0 1 0"/>
<feBlend mode="normal" in2="BackgroundImageFix" result="effect1_dropShadow"/>
<feBlend mode="normal" in="SourceGraphic" in2="effect1_dropShadow" result="shape"/>
<feColorMatrix in="SourceAlpha" type="matrix" values="0 0 0 0 0 0 0 0 0 0 0 0 0 0 0 0 0 0 127 0" result="hardAlpha"/>
<feOffset dy="4"/>
<feGaussianBlur stdDeviation="9.5"/>
<feComposite in2="hardAlpha" operator="arithmetic" k2="-1" k3="1"/>
<feColorMatrix type="matrix" values="0 0 0 0 0.0125 0 0 0 0 0.0125 0 0 0 0 0.0125 0 0 0 1 0"/>
<feBlend mode="normal" in2="shape" result="effect2_innerShadow"/>
</filter>
<filter id="filter7_di" x="353" y="0" width="285" height="573" filterUnits="userSpaceOnUse" color-interpolation-filters="sRGB">
<feFlood flood-opacity="0" result="BackgroundImageFix"/>
<feColorMatrix in="SourceAlpha" type="matrix" values="0 0 0 0 0 0 0 0 0 0 0 0 0 0 0 0 0 0 127 0"/>
<feOffset dx="1" dy="1"/>
<feGaussianBlur stdDeviation="1.5"/>
<feColorMatrix type="matrix" values="0 0 0 0 0 0 0 0 0 0 0 0 0 0 0 0 0 0 0.7 0"/>
<feBlend mode="normal" in2="BackgroundImageFix" result="effect1_dropShadow"/>
<feBlend mode="normal" in="SourceGraphic" in2="effect1_dropShadow" result="shape"/>
<feColorMatrix in="SourceAlpha" type="matrix" values="0 0 0 0 0 0 0 0 0 0 0 0 0 0 0 0 0 0 127 0" result="hardAlpha"/>
<feOffset dx="2" dy="2"/>
<feGaussianBlur stdDeviation="2.5"/>
<feComposite in2="hardAlpha" operator="arithmetic" k2="-1" k3="1"/>
<feColorMatrix type="matrix" values="0 0 0 0 1 0 0 0 0 1 0 0 0 0 1 0 0 0 0.49 0"/>
<feBlend mode="normal" in2="shape" result="effect2_innerShadow"/>
</filter>
<clipPath id="clip0">
<rect width="27" height="27" fill="white" transform="translate(572 244)"/>
</clipPath>
<clipPath id="clip1">
<rect width="32" height="32" fill="white" transform="translate(568 419)"/>
</clipPath>
</defs>
</svg>
