<svg width="29" height="31" viewBox="0 0 29 31" fill="none" xmlns="http://www.w3.org/2000/svg">
<path d="M28.1426 28.9188L28.1424 28.9187L20.2646 20.7259C22.2613 18.6417 23.4913 15.8157 23.4913 12.7073C23.4913 6.31103 18.2884 1.10818 11.8921 1.10818C5.49581 1.10818 0.292963 6.31103 0.292963 12.7073C0.292963 19.1037 5.49581 24.3065 11.8921 24.3065C14.6202 24.3065 17.1305 23.3588 19.1127 21.7776L27.0177 29.9989C27.0178 29.9991 27.018 29.9993 27.0181 29.9994C27.1714 30.1595 27.3764 30.2388 27.5803 30.2388C27.775 30.2388 27.9695 30.1661 28.1204 30.0214L28.1207 30.0211C28.4311 29.7225 28.4404 29.2291 28.1426 28.9188ZM11.8921 22.747C6.35625 22.747 1.85246 18.2432 1.85246 12.7073C1.85246 7.17146 6.35625 2.66767 11.8921 2.66767C17.428 2.66767 21.9318 7.17146 21.9318 12.7073C21.9318 18.2432 17.4275 22.747 11.8921 22.747Z" fill="white" stroke="white" stroke-width="0.477551"/>
</svg>
